<?xml version="1.0" standalone="no"?><!DOCTYPE svg PUBLIC "-//W3C//DTD SVG 1.1//EN" "http://www.w3.org/Graphics/SVG/1.1/DTD/svg11.dtd"><svg height="2903" node-id="1" sillyvg="true" template-height="2903" template-width="2903" version="1.1" viewBox="0 0 2903 2903" width="2903" xmlns="http://www.w3.org/2000/svg" xmlns:xlink="http://www.w3.org/1999/xlink"><defs node-id="28"></defs><g node-id="87"><path d="M 1451.34 2807.30 C 1268.29 2807.30 1090.71 2771.44 923.54 2700.73 C 843.19 2666.75 765.69 2624.69 693.20 2575.71 C 621.41 2527.21 553.89 2471.50 492.53 2410.15 C 431.18 2348.79 375.47 2281.27 326.96 2209.47 C 277.99 2136.99 235.93 2059.49 201.94 1979.14 C 131.24 1811.97 95.38 1634.39 95.38 1451.34 C 95.38 1268.29 131.24 1090.71 201.94 923.54 C 235.93 843.19 277.99 765.69 326.96 693.21 C 375.47 621.41 431.18 553.89 492.53 492.53 C 553.89 431.18 621.41 375.47 693.20 326.96 C 765.69 277.99 843.19 235.93 923.54 201.94 C 1090.71 131.24 1268.29 95.38 1451.34 95.38 C 1634.39 95.38 1811.97 131.24 1979.14 201.94 C 2059.49 235.93 2136.99 277.99 2209.48 326.96 C 2281.27 375.47 2348.79 431.18 2410.15 492.53 C 2471.51 553.89 2527.21 621.41 2575.72 693.21 C 2624.69 765.69 2666.75 843.19 2700.74 923.54 C 2771.44 1090.71 2807.30 1268.29 2807.30 1451.34 C 2807.30 1634.39 2771.44 1811.97 2700.74 1979.14 C 2666.75 2059.49 2624.69 2136.99 2575.72 2209.47 C 2527.21 2281.27 2471.50 2348.79 2410.15 2410.15 C 2348.79 2471.50 2281.27 2527.21 2209.48 2575.71 C 2136.99 2624.69 2059.49 2666.75 1979.14 2700.73 C 1811.97 2771.44 1634.39 2807.30 1451.34 2807.30 Z" fill="#a9b488" fill-rule="nonzero" group-id="1" node-id="32" stroke="none" target-height="2711.9202" target-width="2711.9202" target-x="95.38" target-y="95.38"></path><path d="M 1451.34 105.38 C 2194.69 105.38 2797.30 707.99 2797.30 1451.34 C 2797.30 2194.69 2194.69 2797.30 1451.34 2797.30 C 707.99 2797.30 105.38 2194.69 105.38 1451.34 C 105.38 707.99 707.99 105.38 1451.34 105.38 M 1451.34 85.38 C 1358.67 85.38 1266.06 94.72 1176.07 113.14 C 1088.36 131.08 1002.09 157.86 919.64 192.74 C 838.70 226.97 760.63 269.34 687.61 318.68 C 615.28 367.54 547.27 423.65 485.46 485.46 C 423.65 547.27 367.54 615.28 318.68 687.61 C 269.35 760.63 226.97 838.70 192.74 919.64 C 157.87 1002.09 131.08 1088.36 113.13 1176.07 C 94.72 1266.06 85.38 1358.68 85.38 1451.34 C 85.38 1544.01 94.72 1636.62 113.13 1726.61 C 131.08 1814.32 157.86 1900.60 192.74 1983.04 C 226.97 2063.98 269.35 2142.05 318.68 2215.08 C 367.54 2287.40 423.65 2355.41 485.46 2417.22 C 547.27 2479.03 615.28 2535.14 687.61 2584.00 C 760.63 2633.34 838.70 2675.71 919.64 2709.95 C 1002.09 2744.82 1088.36 2771.60 1176.07 2789.55 C 1266.06 2807.96 1358.67 2817.30 1451.34 2817.30 C 1544.01 2817.30 1636.62 2807.96 1726.61 2789.55 C 1814.32 2771.60 1900.60 2744.82 1983.04 2709.95 C 2063.98 2675.71 2142.05 2633.34 2215.07 2584.00 C 2287.40 2535.14 2355.41 2479.03 2417.22 2417.22 C 2479.03 2355.41 2535.14 2287.40 2584.00 2215.08 C 2633.34 2142.05 2675.71 2063.98 2709.95 1983.04 C 2744.82 1900.60 2771.60 1814.32 2789.55 1726.61 C 2807.96 1636.62 2817.30 1544.01 2817.30 1451.34 C 2817.30 1358.68 2807.96 1266.06 2789.55 1176.07 C 2771.60 1088.36 2744.82 1002.09 2709.95 919.64 C 2675.71 838.70 2633.34 760.63 2584.00 687.61 C 2535.14 615.28 2479.03 547.27 2417.22 485.46 C 2355.41 423.65 2287.40 367.54 2215.07 318.68 C 2142.05 269.34 2063.98 226.97 1983.04 192.74 C 1900.60 157.87 1814.32 131.08 1726.61 113.14 C 1636.62 94.72 1544.01 85.38 1451.34 85.38 L 1451.34 85.38 Z" fill="#536a45" fill-rule="nonzero" group-id="1" node-id="34" stroke="none" target-height="2731.9202" target-width="2731.9202" target-x="85.38" target-y="85.38"></path></g><g node-id="88"><path d="M 1451.34 2655.67 C 1288.78 2655.67 1131.05 2623.82 982.54 2561.01 C 911.17 2530.82 842.34 2493.46 777.95 2449.96 C 714.19 2406.89 654.24 2357.42 599.75 2302.93 C 545.26 2248.45 495.80 2188.49 452.72 2124.73 C 409.22 2060.34 371.86 1991.51 341.67 1920.14 C 278.86 1771.63 247.01 1613.90 247.01 1451.34 C 247.01 1288.78 278.86 1131.06 341.67 982.55 C 371.86 911.17 409.22 842.34 452.72 777.95 C 495.80 714.19 545.26 654.24 599.75 599.75 C 654.24 545.26 714.19 495.80 777.95 452.72 C 842.34 409.22 911.17 371.86 982.54 341.67 C 1131.05 278.86 1288.78 247.01 1451.34 247.01 C 1613.90 247.01 1771.63 278.86 1920.14 341.67 C 1991.51 371.86 2060.34 409.22 2124.73 452.72 C 2188.49 495.80 2248.45 545.26 2302.93 599.75 C 2357.42 654.24 2406.89 714.19 2449.96 777.95 C 2493.46 842.34 2530.82 911.17 2561.01 982.55 C 2623.82 1131.06 2655.67 1288.78 2655.67 1451.34 C 2655.67 1613.91 2623.82 1771.63 2561.01 1920.14 C 2530.82 1991.51 2493.46 2060.34 2449.96 2124.73 C 2406.89 2188.49 2357.42 2248.45 2302.93 2302.93 C 2248.45 2357.42 2188.49 2406.89 2124.73 2449.96 C 2060.34 2493.46 1991.51 2530.82 1920.14 2561.01 C 1771.63 2623.82 1613.90 2655.67 1451.34 2655.67 Z" fill="#f1eed8" fill-rule="nonzero" group-id="2" node-id="39" stroke="none" target-height="2408.66" target-width="2408.66" target-x="247.01" target-y="247.01"></path><g node-id="92"><path d="M 1451.34 297.01 C 2088.86 297.01 2605.67 813.82 2605.67 1451.34 C 2605.67 2088.86 2088.86 2605.67 1451.34 2605.67 C 813.82 2605.67 297.01 2088.86 297.01 1451.34 C 297.01 813.82 813.82 297.01 1451.34 297.01 M 1451.34 197.01 C 1366.30 197.01 1281.29 205.58 1198.65 222.49 C 1118.07 238.98 1038.81 263.59 963.07 295.62 C 888.72 327.07 817.02 365.98 749.96 411.29 C 683.57 456.15 621.13 507.66 564.39 564.39 C 507.66 621.13 456.15 683.57 411.29 749.96 C 365.98 817.02 327.07 888.72 295.62 963.07 C 263.59 1038.81 238.98 1118.08 222.49 1198.66 C 205.58 1281.29 197.01 1366.30 197.01 1451.34 C 197.01 1536.38 205.58 1621.40 222.49 1704.03 C 238.98 1784.61 263.59 1863.87 295.62 1939.62 C 327.07 2013.96 365.98 2085.66 411.29 2152.72 C 456.15 2219.12 507.66 2281.55 564.39 2338.29 C 621.13 2395.02 683.57 2446.53 749.96 2491.39 C 817.02 2536.70 888.72 2575.61 963.07 2607.06 C 1038.81 2639.09 1118.07 2663.70 1198.65 2680.19 C 1281.29 2697.10 1366.30 2705.67 1451.34 2705.67 C 1536.38 2705.67 1621.40 2697.10 1704.03 2680.19 C 1784.61 2663.70 1863.87 2639.09 1939.62 2607.06 C 2013.96 2575.61 2085.66 2536.70 2152.72 2491.39 C 2219.12 2446.53 2281.55 2395.02 2338.29 2338.29 C 2395.02 2281.55 2446.53 2219.12 2491.39 2152.72 C 2536.70 2085.66 2575.61 2013.96 2607.06 1939.61 C 2639.09 1863.87 2663.70 1784.61 2680.19 1704.03 C 2697.09 1621.40 2705.67 1536.38 2705.67 1451.34 C 2705.67 1366.30 2697.09 1281.29 2680.19 1198.65 C 2663.70 1118.07 2639.09 1038.81 2607.06 963.07 C 2575.61 888.72 2536.70 817.02 2491.39 749.96 C 2446.53 683.57 2395.02 621.13 2338.29 564.39 C 2281.55 507.66 2219.12 456.14 2152.72 411.29 C 2085.66 365.98 2013.96 327.07 1939.62 295.62 C 1863.87 263.58 1784.61 238.98 1704.03 222.49 C 1621.40 205.58 1536.38 197.01 1451.34 197.01 L 1451.34 197.01 Z" fill="#e5dea7" fill-rule="nonzero" group-id="2,6" node-id="43" stroke="none" target-height="2508.66" target-width="2508.66" target-x="197.01" target-y="197.01"></path></g></g><g node-id="89"><path d="M 1451.34 246.61 L 2656.05 1451.32 L 1451.34 2656.03 L 246.63 1451.32 Z" fill="#304456" fill-rule="nonzero" group-id="3" node-id="49" stroke="none" target-height="2409.42" target-width="2409.42" target-x="246.63" target-y="246.61"></path></g><path d="M 2387.96 1839.30 L 2775.92 1451.34 L 2387.96 1063.38 L 2387.96 514.72 L 1839.30 514.72 L 1451.34 126.76 L 1063.38 514.72 L 514.72 514.72 L 514.72 1063.38 L 126.76 1451.34 L 514.72 1839.30 L 514.72 2387.96 L 1063.38 2387.96 L 1451.34 2775.92 L 1839.30 2387.96 L 2387.96 2387.96 Z" fill="none" node-id="52" stroke="#304456" stroke-linecap="butt" stroke-width="30" target-height="2649.16" target-width="2649.16" target-x="126.76" target-y="126.76"></path><path d="M 1372.84 2213.34 C 1325.49 2213.34 1292.21 2186.86 1273.78 2134.59 C 1239.43 2121.75 1211.97 2105.18 1192.02 2085.23 C 1161.53 2054.73 1130.60 1977.26 1100.09 1854.96 C 1075.05 1754.57 1057.40 1652.72 1048.20 1583.60 C 1040.80 1583.75 1031.98 1584.38 1021.97 1585.10 C 1006.54 1586.21 989.07 1587.48 968.33 1587.48 C 889.10 1587.48 820.10 1524.70 776.16 1472.04 C 749.57 1440.14 723.81 1401.38 705.48 1365.67 C 683.08 1322.02 673.95 1287.70 678.33 1263.67 C 681.10 1248.30 690.66 1235.06 704.55 1227.40 C 710.27 1224.22 718.02 1220.96 731.80 1220.96 C 744.84 1220.96 769.94 1223.36 837.00 1244.15 C 899.09 1263.41 986.69 1295.25 1097.57 1338.87 C 1113.41 1320.30 1131.99 1303.56 1152.25 1289.55 C 1101.01 1259.74 1041.43 1242.72 979.00 1224.90 C 908.37 1204.74 835.34 1183.90 772.31 1141.88 C 747.37 1125.26 727.88 1096.06 712.73 1052.62 C 701.36 1020.01 692.56 979.13 686.57 931.11 C 676.30 848.87 676.86 768.21 677.57 737.36 C 678.19 710.68 699.29 690.04 726.67 689.35 L 727.27 689.33 L 727.88 689.35 C 754.98 689.97 776.52 712.53 775.89 739.64 C 775.79 744.07 775.72 748.57 775.67 753.13 C 796.81 728.21 821.56 708.61 849.73 694.52 C 856.54 691.13 864.12 689.34 871.69 689.34 C 890.43 689.34 907.28 699.74 915.68 716.49 C 927.35 739.82 918.68 768.09 896.43 781.00 L 896.07 781.29 L 894.00 782.33 L 893.39 782.65 L 893.12 782.77 C 810.55 824.60 795.48 948.75 793.24 974.32 C 793.79 977.11 794.35 979.80 794.91 982.39 C 796.13 984.85 797.14 987.41 797.93 990.03 C 809.16 1026.79 844.02 1056.66 904.47 1081.27 C 956.61 1102.49 1017.62 1115.74 1072.96 1127.14 C 1022.29 1078.35 977.90 1026.28 968.12 963.56 C 963.95 936.77 982.34 911.58 1009.12 907.40 L 1009.48 907.35 C 1011.84 907.01 1014.25 906.84 1016.62 906.84 C 1041.06 906.84 1061.53 924.32 1065.29 948.40 C 1072.39 994.00 1127.79 1044.69 1181.37 1093.71 C 1232.29 1140.30 1284.90 1188.43 1312.60 1245.02 C 1312.81 1245.35 1313.02 1245.67 1313.22 1246.00 C 1354.55 1248.41 1381.27 1255.38 1403.16 1261.10 C 1420.69 1265.68 1434.53 1269.29 1451.34 1269.29 C 1468.15 1269.29 1482.00 1265.68 1499.53 1261.10 C 1521.42 1255.39 1548.14 1248.41 1589.46 1246.00 C 1589.67 1245.68 1589.88 1245.35 1590.09 1245.03 C 1617.78 1188.43 1670.38 1140.31 1721.27 1093.75 C 1774.89 1044.69 1830.30 994.01 1837.40 948.41 C 1841.15 924.32 1861.62 906.84 1886.07 906.84 C 1888.44 906.84 1890.84 907.01 1893.21 907.35 L 1893.57 907.40 C 1920.34 911.58 1938.73 936.77 1934.57 963.56 C 1924.79 1026.28 1880.40 1078.34 1829.72 1127.14 C 1885.12 1115.73 1946.09 1102.49 1998.21 1081.27 C 2058.67 1056.66 2093.53 1026.79 2104.78 989.96 C 2105.55 987.38 2106.56 984.83 2107.78 982.38 C 2108.34 979.79 2108.90 977.10 2109.45 974.34 C 2107.21 948.76 2092.18 824.44 2009.38 782.67 L 2008.97 782.47 C 1984.72 770.33 1974.87 740.74 1987.00 716.50 C 1995.39 699.74 2012.25 689.33 2030.99 689.33 C 2038.56 689.33 2046.14 691.12 2052.93 694.51 C 2081.12 708.60 2105.87 728.21 2127.02 753.13 C 2126.97 748.57 2126.90 744.08 2126.79 739.65 C 2126.18 712.53 2147.72 689.97 2174.81 689.35 L 2175.41 689.33 L 2176.02 689.35 C 2203.39 690.03 2224.49 710.67 2225.11 737.36 C 2225.83 768.22 2226.38 848.88 2216.12 931.11 C 2210.13 979.13 2201.32 1020.01 2189.95 1052.62 C 2174.81 1096.06 2155.32 1125.26 2130.38 1141.88 C 2067.35 1183.90 1994.31 1204.74 1923.68 1224.90 C 1861.26 1242.72 1801.69 1259.73 1750.44 1289.55 C 1770.69 1303.56 1789.28 1320.30 1805.12 1338.87 C 1916.01 1295.25 2003.61 1263.40 2065.70 1244.15 C 2132.75 1223.36 2157.84 1220.96 2170.89 1220.96 C 2184.66 1220.96 2192.41 1224.22 2198.17 1227.42 C 2212.03 1235.06 2221.59 1248.31 2224.36 1263.73 C 2228.74 1287.71 2219.60 1322.02 2197.20 1365.68 C 2178.88 1401.38 2153.12 1440.15 2126.53 1472.04 C 2082.59 1524.70 2013.58 1587.48 1934.35 1587.48 C 1913.52 1587.48 1895.34 1586.16 1880.72 1585.10 C 1870.71 1584.38 1861.89 1583.75 1854.49 1583.60 C 1845.29 1652.72 1827.64 1754.58 1802.60 1854.96 C 1772.09 1977.26 1741.16 2054.74 1710.67 2085.23 C 1690.71 2105.19 1663.21 2121.78 1628.83 2134.62 C 1610.33 2186.88 1576.94 2213.34 1529.45 2213.34 C 1510.77 2213.34 1493.06 2209.36 1477.43 2205.85 C 1467.01 2203.51 1457.17 2201.30 1450.99 2201.30 C 1444.85 2201.30 1435.06 2203.51 1424.70 2205.85 C 1409.13 2209.36 1391.48 2213.34 1372.84 2213.34 Z" fill="#304456" fill-rule="nonzero" group-id="4" node-id="56" stroke="none" target-height="1524.01" target-width="1554.79" target-x="673.95" target-y="689.33"></path><path d="M 2030.99 714.33 C 2034.62 714.33 2038.30 715.15 2041.77 716.88 C 2096.04 744.01 2129.51 791.33 2150.14 838.20 C 2152.01 802.63 2152.46 768.26 2151.78 739.07 C 2151.48 725.71 2162.05 714.64 2175.38 714.34 C 2189.47 714.69 2199.81 724.60 2200.11 737.93 C 2201.36 791.76 2203.25 1063.26 2116.51 1121.08 C 2056.75 1160.91 1985.61 1181.23 1916.82 1200.86 C 1839.18 1223.03 1764.66 1244.33 1703.35 1290.87 C 1738.90 1308.13 1772.37 1335.27 1797.05 1368.93 C 2062.61 1263.83 2143.01 1245.96 2170.88 1245.96 C 2180.03 1245.96 2183.53 1247.88 2186.05 1249.28 C 2193.32 1253.29 2198.32 1260.18 2199.76 1268.16 C 2206.88 1307.22 2157.30 1396.09 2107.32 1456.03 C 2066.80 1504.59 2003.89 1562.48 1934.35 1562.48 C 1914.57 1562.48 1897.53 1561.25 1882.53 1560.16 C 1870.41 1559.30 1860.23 1558.56 1851.33 1558.56 C 1844.26 1558.56 1838.01 1559.02 1832.25 1560.24 C 1813.78 1714.01 1753.38 2007.16 1692.98 2067.55 C 1671.23 2089.30 1640.78 2104.53 1608.81 2115.18 C 1591.79 2174.19 1560.95 2188.34 1529.45 2188.34 C 1500.40 2188.34 1470.79 2176.30 1450.98 2176.30 C 1431.26 2176.30 1401.78 2188.34 1372.84 2188.34 C 1341.48 2188.34 1310.75 2174.18 1293.81 2115.16 C 1261.86 2104.51 1231.43 2089.29 1209.70 2067.55 C 1149.30 2007.15 1088.91 1714.01 1070.43 1560.24 C 1064.67 1559.02 1058.42 1558.56 1051.36 1558.56 C 1042.45 1558.56 1032.26 1559.30 1020.15 1560.16 C 1005.14 1561.25 988.11 1562.48 968.33 1562.48 C 898.79 1562.48 835.88 1504.59 795.36 1456.03 C 745.38 1396.09 695.80 1307.21 702.92 1268.16 C 704.36 1260.18 709.37 1253.29 716.63 1249.28 C 719.15 1247.88 722.65 1245.96 731.79 1245.96 C 759.68 1245.96 840.09 1263.84 1105.64 1368.93 C 1130.32 1335.27 1163.79 1308.13 1199.33 1290.87 C 1138.02 1244.33 1063.51 1223.03 985.86 1200.86 C 917.08 1181.23 845.92 1160.91 786.17 1121.08 C 699.43 1063.26 701.32 791.76 702.57 737.93 C 702.87 724.60 713.21 714.69 727.30 714.34 C 740.63 714.65 751.20 725.71 750.90 739.07 C 750.22 768.25 750.67 802.63 752.54 838.19 C 773.17 791.32 806.64 744.01 860.91 716.88 C 864.37 715.15 868.05 714.34 871.68 714.34 C 880.55 714.34 889.09 719.23 893.33 727.69 C 899.30 739.62 894.47 754.13 882.53 760.11 C 882.53 760.11 882.52 760.11 882.52 760.11 C 783.39 809.67 769.53 954.82 768.04 975.76 C 769.06 981.05 770.13 986.24 771.26 991.29 C 772.44 993.15 773.36 995.16 774.00 997.26 C 804.67 1097.67 964.06 1130.33 1080.42 1154.19 C 1109.65 1160.20 1135.50 1165.49 1157.43 1171.34 C 1148.99 1163.46 1140.41 1155.62 1131.88 1147.81 C 1068.95 1090.26 1003.89 1030.72 992.82 959.71 C 990.77 946.52 999.80 934.15 1012.97 932.10 C 1014.20 931.93 1015.42 931.84 1016.62 931.84 C 1028.60 931.84 1038.72 940.28 1040.59 952.25 C 1049.03 1006.50 1107.72 1060.21 1164.50 1112.15 C 1214.32 1157.74 1265.39 1204.47 1290.80 1257.38 C 1293.93 1262.10 1296.46 1266.48 1298.49 1270.37 C 1381.75 1272.89 1405.85 1294.29 1451.34 1294.29 C 1496.83 1294.29 1520.93 1272.89 1604.19 1270.37 C 1606.22 1266.48 1608.76 1262.10 1611.88 1257.38 C 1637.28 1204.47 1688.37 1157.74 1738.18 1112.15 C 1794.96 1060.21 1853.65 1006.50 1862.10 952.25 C 1863.96 940.28 1874.08 931.84 1886.07 931.84 C 1887.26 931.84 1888.48 931.93 1889.71 932.10 C 1902.87 934.15 1911.91 946.52 1909.86 959.71 C 1898.79 1030.72 1833.73 1090.26 1770.80 1147.81 C 1762.27 1155.62 1753.70 1163.46 1745.26 1171.34 C 1767.18 1165.49 1793.03 1160.20 1822.26 1154.19 C 1938.62 1130.34 2098.01 1097.67 2128.68 997.26 C 2129.32 995.16 2130.24 993.15 2131.42 991.29 C 2132.55 986.25 2133.62 981.07 2134.64 975.78 C 2133.17 954.96 2119.34 809.69 2020.16 760.11 C 2020.15 760.11 2020.15 760.11 2020.15 760.11 C 2008.21 754.13 2003.38 739.62 2009.35 727.69 C 2013.59 719.22 2022.12 714.33 2030.99 714.33 M 2175.44 664.32 L 2174.23 664.35 C 2146.98 664.98 2123.46 680.32 2111.08 702.59 C 2096.50 690.67 2080.81 680.50 2064.13 672.16 C 2053.86 667.03 2042.41 664.33 2030.99 664.33 L 2030.99 664.33 C 2030.99 664.33 2030.99 664.33 2030.99 664.33 C 2030.99 664.33 2030.99 664.33 2030.99 664.33 C 2017.45 664.33 2004.16 668.04 1992.56 675.05 C 1980.58 682.29 1970.93 692.75 1964.65 705.29 C 1946.42 741.71 1961.07 786.11 1997.26 804.56 L 1997.33 804.60 L 1997.49 804.68 C 1997.58 804.72 1997.67 804.77 1997.76 804.82 L 1998.25 805.06 C 2027.81 820.03 2050.91 850.45 2066.92 895.48 C 2078.59 928.29 2082.81 959.22 2084.21 973.00 C 2084.11 973.47 2084.01 973.95 2083.91 974.42 C 2082.73 977.11 2081.71 979.87 2080.85 982.69 C 2064.99 1034.48 1983.70 1064.75 1902.78 1085.16 C 1934.66 1045.13 1953.16 1006.56 1959.26 967.41 C 1965.55 927.00 1937.81 889.00 1897.42 882.70 L 1897.06 882.64 L 1896.70 882.59 C 1893.18 882.09 1889.60 881.84 1886.06 881.84 C 1868.43 881.84 1851.35 888.08 1837.98 899.40 C 1824.42 910.87 1815.44 926.90 1812.69 944.54 C 1806.94 981.49 1752.48 1031.31 1704.43 1075.26 L 1704.39 1075.30 C 1655.27 1120.24 1604.61 1166.60 1573.87 1222.07 C 1538.07 1225.20 1513.63 1231.58 1493.20 1236.91 C 1476.18 1241.36 1464.94 1244.29 1451.34 1244.29 C 1437.74 1244.29 1426.49 1241.35 1409.48 1236.91 C 1389.05 1231.58 1364.61 1225.20 1328.80 1222.06 C 1298.06 1166.60 1247.39 1120.23 1198.28 1075.29 C 1150.20 1031.31 1095.74 981.48 1089.99 944.56 C 1087.23 926.90 1078.25 910.87 1064.70 899.40 C 1051.32 888.08 1034.25 881.84 1016.62 881.84 C 1013.08 881.84 1009.50 882.09 1005.98 882.59 L 1005.62 882.64 L 1005.26 882.70 C 964.87 889.00 937.12 927.00 943.41 967.41 C 949.52 1006.55 968.01 1045.13 999.90 1085.16 C 918.99 1064.76 837.73 1034.50 821.84 982.74 C 820.98 979.91 819.96 977.13 818.77 974.43 C 818.67 973.95 818.57 973.47 818.47 972.98 C 819.88 959.18 824.11 928.21 835.77 895.43 C 851.66 850.76 874.53 820.48 903.76 805.40 L 904.32 805.16 L 905.56 804.49 L 908.06 803.24 L 908.84 802.70 C 942.52 783.26 955.66 740.55 938.04 705.32 C 931.74 692.75 922.09 682.29 910.11 675.05 C 898.51 668.04 885.23 664.33 871.68 664.33 C 860.27 664.33 848.82 667.03 838.58 672.14 C 821.88 680.49 806.18 690.67 791.60 702.59 C 779.23 680.31 755.70 664.98 728.45 664.35 L 727.24 664.32 L 726.04 664.35 C 706.78 664.84 688.73 672.21 675.22 685.12 C 661.08 698.63 653.03 716.98 652.58 736.78 C 651.85 768.18 651.28 850.31 661.75 934.20 C 667.97 983.97 677.17 1026.58 689.12 1060.85 C 696.63 1082.39 705.46 1101.26 715.35 1116.92 C 727.67 1136.44 742.17 1151.84 758.44 1162.68 C 824.72 1206.86 899.66 1228.25 972.14 1248.94 C 1019.60 1262.49 1065.36 1275.56 1106.33 1294.11 C 1100.92 1298.99 1095.68 1304.06 1090.65 1309.30 C 986.75 1268.67 904.03 1238.77 844.40 1220.28 C 774.88 1198.72 747.71 1195.96 731.79 1195.96 C 712.20 1195.96 700.44 1201.09 692.38 1205.55 C 671.95 1216.86 657.87 1236.40 653.73 1259.19 L 653.73 1259.19 C 648.26 1289.17 657.91 1327.74 683.24 1377.09 C 702.37 1414.36 729.23 1454.80 756.96 1488.05 C 784.62 1521.21 813.36 1548.27 842.38 1568.49 C 884.27 1597.68 926.65 1612.48 968.33 1612.48 C 989.97 1612.48 1008.70 1611.12 1023.76 1610.03 C 1024.72 1609.96 1025.67 1609.89 1026.61 1609.83 C 1036.53 1678.24 1053.19 1770.24 1075.83 1861.01 C 1089.71 1916.67 1103.99 1964.12 1118.26 2002.04 C 1136.70 2051.03 1154.52 2083.08 1174.34 2102.91 C 1194.67 2123.24 1221.52 2140.31 1254.37 2153.83 C 1257.85 2162.25 1261.73 2170.04 1265.97 2177.14 C 1274.55 2191.50 1284.92 2203.57 1296.78 2213.01 C 1317.91 2229.82 1343.50 2238.34 1372.84 2238.34 C 1394.27 2238.34 1414.19 2233.84 1430.20 2230.23 C 1437.51 2228.58 1447.52 2226.32 1450.99 2226.29 C 1454.47 2226.31 1464.57 2228.58 1471.94 2230.24 C 1488.00 2233.85 1507.98 2238.34 1529.45 2238.34 C 1558.83 2238.34 1584.45 2229.84 1605.61 2213.08 C 1617.51 2203.65 1627.91 2191.59 1636.53 2177.24 C 1640.80 2170.12 1644.70 2162.31 1648.21 2153.87 C 1681.10 2140.35 1707.99 2123.26 1728.34 2102.91 C 1748.16 2083.09 1765.98 2051.03 1784.42 2002.04 C 1798.69 1964.12 1812.96 1916.68 1826.85 1861.01 C 1849.49 1770.24 1866.15 1678.24 1876.07 1609.83 C 1877.02 1609.89 1877.97 1609.96 1878.94 1610.03 C 1893.92 1611.12 1912.61 1612.48 1934.34 1612.48 C 1976.02 1612.48 2018.40 1597.68 2060.30 1568.49 C 2089.31 1548.28 2118.05 1521.21 2145.71 1488.06 C 2173.44 1454.80 2200.31 1414.36 2219.44 1377.09 C 2244.74 1327.78 2254.40 1289.23 2248.95 1259.25 C 2244.83 1236.41 2230.71 1216.82 2210.21 1205.51 C 2202.16 1201.05 2190.41 1195.96 2170.88 1195.96 C 2154.97 1195.96 2127.80 1198.72 2058.29 1220.27 C 1998.66 1238.76 1915.93 1268.67 1812.03 1309.30 C 1807.00 1304.06 1801.76 1298.99 1796.34 1294.10 C 1837.32 1275.55 1883.08 1262.49 1930.54 1248.94 C 2003.01 1228.25 2077.96 1206.86 2144.24 1162.68 C 2160.50 1151.84 2175.00 1136.44 2187.33 1116.92 C 2197.22 1101.26 2206.04 1082.39 2213.55 1060.85 C 2225.50 1026.58 2234.71 983.97 2240.92 934.20 C 2251.39 850.32 2250.83 768.19 2250.10 736.77 C 2249.64 716.98 2241.60 698.63 2227.46 685.12 C 2213.95 672.21 2195.90 664.84 2176.64 664.35 L 2175.44 664.32 L 2175.44 664.32 Z" fill="#152028" fill-rule="nonzero" group-id="4" node-id="58" stroke="none" target-height="1574.02" target-width="1606.1399" target-x="648.26" target-y="664.32"></path><path d="M 2158.91 993.43 C 2159.27 993.43 2159.60 993.43 2159.93 993.41 C 2173.26 992.87 2183.62 981.66 2183.08 968.32 C 2182.77 960.47 2173.85 774.91 2041.77 708.88 C 2029.83 702.93 2015.33 707.76 2009.35 719.69 C 2003.38 731.62 2008.21 746.13 2020.14 752.11 C 2020.15 752.11 2020.15 752.11 2020.16 752.11 C 2126.56 805.30 2134.73 968.65 2134.79 970.28 C 2135.34 983.27 2146.05 993.43 2158.91 993.43 L 2158.91 993.43 Z M 1619.84 1334.62 C 1632.60 1334.60 1643.15 1324.66 1643.93 1311.91 C 1647.52 1252.61 1710.19 1195.27 1770.80 1139.81 C 1833.73 1082.25 1898.79 1022.72 1909.86 951.71 C 1911.91 938.52 1902.87 926.15 1889.71 924.10 C 1876.18 922.19 1864.15 931.09 1862.09 944.25 C 1853.65 998.50 1794.96 1052.21 1738.18 1104.15 C 1670.48 1166.10 1600.44 1230.17 1595.70 1308.98 C 1594.89 1322.31 1605.04 1333.76 1618.35 1334.56 C 1618.84 1334.59 1619.34 1334.62 1619.84 1334.62 Z M 743.76 993.43 C 743.41 993.43 743.08 993.43 742.75 993.41 C 729.42 992.87 719.06 981.66 719.60 968.32 C 719.91 960.47 728.83 774.92 860.91 708.89 C 872.85 702.93 887.35 707.77 893.33 719.69 C 899.30 731.62 894.47 746.14 882.53 752.11 C 882.53 752.11 882.53 752.11 882.52 752.12 C 776.12 805.31 767.95 968.66 767.88 970.29 C 767.34 983.26 756.62 993.43 743.76 993.43 Z M 1282.84 1334.62 C 1270.08 1334.60 1259.53 1324.66 1258.75 1311.91 C 1255.16 1252.61 1192.49 1195.27 1131.88 1139.81 C 1068.95 1082.25 1003.89 1022.72 992.82 951.71 C 990.77 938.52 999.80 926.15 1012.97 924.10 C 1026.49 922.19 1038.53 931.09 1040.58 944.25 C 1049.03 998.50 1107.72 1052.21 1164.50 1104.15 C 1232.20 1166.10 1302.24 1230.17 1306.98 1308.98 C 1307.79 1322.31 1297.64 1333.76 1284.33 1334.56 C 1283.84 1334.60 1283.34 1334.61 1282.84 1334.62 Z M 1137.84 1578.64 C 1089.51 1506.15 1054.48 1530.31 969.04 1530.31 C 848.22 1530.31 719.34 1308.80 727.40 1264.50 C 732.59 1235.93 1162.00 1409.49 1162.00 1409.49 L 1137.84 1578.64 Z" fill="#cfb396" fill-rule="nonzero" group-id="5" node-id="63" stroke="none" target-height="875.71" target-width="1464.56" target-x="719.06" target-y="702.93"></path><path d="M 1137.84 1602.81 C 1129.76 1602.80 1122.22 1598.76 1117.73 1592.04 C 1087.88 1547.28 1070.84 1548.53 1020.15 1552.16 C 1005.14 1553.25 988.11 1554.48 968.34 1554.48 C 898.79 1554.48 835.88 1496.59 795.36 1448.03 C 745.38 1388.09 695.80 1299.21 702.92 1260.16 C 704.36 1252.18 709.37 1245.29 716.63 1241.28 C 727.44 1235.29 756.07 1219.64 1171.04 1387.07 C 1181.35 1391.24 1187.49 1401.90 1185.93 1412.91 L 1161.77 1582.06 C 1160.35 1591.98 1152.96 1600.00 1143.20 1602.22 C 1141.44 1602.61 1139.64 1602.81 1137.84 1602.81 Z M 1050.93 1502.30 C 1075.80 1502.30 1098.62 1506.51 1121.25 1523.97 L 1135.41 1424.83 C 981.71 1363.26 815.63 1302.52 754.84 1288.48 C 765.93 1320.10 797.53 1379.50 845.91 1432.45 C 889.30 1479.98 932.80 1506.15 968.33 1506.15 C 986.38 1506.15 1002.48 1504.99 1016.71 1503.98 C 1028.60 1503.10 1039.98 1502.30 1050.93 1502.30 Z" fill="#877364" fill-rule="nonzero" group-id="5" node-id="65" stroke="none" target-height="383.17004" target-width="491.69" target-x="695.8" target-y="1219.64"></path><path d="M 1764.84 1578.64 C 1813.17 1506.15 1848.19 1530.31 1933.63 1530.31 C 2054.45 1530.31 2183.33 1308.80 2175.28 1264.50 C 2170.08 1235.93 1740.67 1409.49 1740.67 1409.49 L 1764.84 1578.64 Z" fill="#cfb396" fill-rule="nonzero" group-id="5" node-id="67" stroke="none" target-height="342.70996" target-width="442.66003" target-x="1740.67" target-y="1235.93"></path><path d="M 1759.48 1602.22 C 1749.71 1600.00 1742.33 1591.98 1740.91 1582.07 L 1716.75 1412.91 C 1715.19 1401.90 1721.33 1391.24 1731.64 1387.07 C 2146.62 1219.64 2175.24 1235.29 2186.05 1241.28 C 2193.32 1245.29 2198.32 1252.18 2199.76 1260.16 C 2206.88 1299.22 2157.30 1388.09 2107.32 1448.03 C 2066.80 1496.59 2003.89 1554.48 1934.35 1554.48 C 1914.57 1554.48 1897.53 1553.25 1882.53 1552.16 C 1831.84 1548.53 1814.80 1547.28 1784.94 1592.04 C 1780.46 1598.77 1772.92 1602.80 1764.84 1602.81 C 1763.04 1602.81 1761.24 1602.61 1759.48 1602.22 L 1759.48 1602.22 Z M 1885.97 1503.98 C 1900.20 1504.99 1916.29 1506.15 1934.35 1506.15 C 1969.89 1506.15 2013.38 1479.98 2056.77 1432.45 C 2105.15 1379.50 2136.75 1320.10 2147.84 1288.48 C 2087.05 1302.52 1920.97 1363.26 1767.27 1424.83 L 1781.43 1523.97 C 1804.06 1506.51 1826.88 1502.30 1851.75 1502.30 C 1862.70 1502.30 1874.07 1503.10 1885.97 1503.98 Z" fill="#877364" fill-rule="nonzero" group-id="5" node-id="69" stroke="none" target-height="383.17004" target-width="491.68994" target-x="1715.19" target-y="1219.64"></path><path d="M 2200.11 729.94 C 2199.81 716.61 2189.47 706.69 2175.38 706.34 C 2162.05 706.65 2151.48 717.71 2151.78 731.07 C 2153.46 803.54 2148.24 907.99 2131.42 983.29 C 2130.24 985.15 2129.32 987.16 2128.68 989.26 C 2098.00 1089.67 1938.62 1122.33 1822.26 1146.19 C 1787.92 1153.25 1758.24 1159.31 1734.12 1166.46 C 1651.85 1190.84 1617.41 1237.03 1604.19 1262.38 C 1520.93 1264.89 1496.83 1286.29 1451.34 1286.29 C 1405.85 1286.29 1381.75 1264.89 1298.48 1262.38 C 1285.27 1237.03 1250.83 1190.85 1168.55 1166.46 C 1144.44 1159.31 1114.75 1153.25 1080.42 1146.19 C 964.05 1122.34 804.67 1089.67 774.00 989.26 C 773.36 987.16 772.44 985.15 771.26 983.29 C 754.43 907.99 749.22 803.54 750.90 731.07 C 751.20 717.71 740.63 706.65 727.30 706.34 C 713.21 706.69 702.87 716.61 702.57 729.94 C 701.32 783.76 699.43 1055.26 786.17 1113.08 C 845.92 1152.91 917.07 1173.23 985.86 1192.87 C 1063.50 1215.03 1138.02 1236.33 1199.33 1282.87 C 1127.84 1317.58 1064.71 1392.27 1064.71 1479.60 C 1064.71 1579.24 1137.20 1987.06 1209.70 2059.55 C 1282.18 2132.05 1451.34 2132.05 1451.34 2132.05 C 1451.34 2132.05 1620.49 2132.05 1692.98 2059.55 C 1765.48 1987.06 1837.97 1579.24 1837.97 1479.60 C 1837.97 1392.27 1774.85 1317.58 1703.35 1282.87 C 1764.66 1236.33 1839.18 1215.03 1916.81 1192.86 C 1985.60 1173.23 2056.75 1152.91 2116.50 1113.08 C 2203.25 1055.26 2201.36 783.76 2200.11 729.94 Z" fill="#9f8976" fill-rule="nonzero" group-id="5" node-id="71" stroke="none" target-height="1425.71" target-width="1503.8201" target-x="699.43" target-y="706.34"></path><path d="M 1282.19 2035.39 C 1297.29 2239.59 1403.01 2168.30 1450.98 2168.30 C 1499.16 2168.30 1605.33 2239.58 1620.49 2035.39 L 1282.19 2035.39 Z" fill="#ffdeb7" fill-rule="nonzero" group-id="5" node-id="73" stroke="none" target-height="204.20007" target-width="338.30005" target-x="1282.19" target-y="2035.39"></path><path d="M 1644.30 2011.22 C 1644.30 2084.63 1544.40 2083.72 1450.98 2083.72 C 1357.56 2083.72 1257.66 2084.63 1257.66 2011.22 C 1257.66 1892.41 1357.56 1795.76 1450.98 1795.76 C 1544.40 1795.76 1644.30 1892.42 1644.30 2011.22 Z" fill="#ffebd2" fill-rule="nonzero" group-id="5" node-id="75" stroke="none" target-height="288.86987" target-width="386.64" target-x="1257.66" target-y="1795.76"></path><path d="M 1571.81 1977.04 C 1571.81 2034.23 1491.02 2061.88 1450.98 2061.88 C 1410.95 2061.88 1330.16 2034.23 1330.16 1977.04 C 1330.16 1919.84 1384.26 1916.89 1450.98 1916.89 C 1517.71 1916.89 1571.81 1919.84 1571.81 1977.04 Z" fill="#464655" fill-rule="nonzero" group-id="5" node-id="77" stroke="none" target-height="144.98987" target-width="241.65002" target-x="1330.16" target-y="1916.89"></path><path d="M 1150.80 1691.35 C 1195.03 1743.62 1260.49 1760.95 1296.99 1730.05 C 1333.50 1699.15 1327.23 1631.74 1282.99 1579.46 L 1282.99 1579.46 C 1238.76 1527.19 1173.30 1509.86 1136.79 1540.76 C 1100.29 1571.66 1106.56 1639.08 1150.80 1691.35 Z" fill="#cfb396" fill-rule="nonzero" group-id="5" node-id="79" stroke="none" target-height="251.08997" target-width="233.20996" target-x="1100.29" target-y="1509.86"></path><path d="M 1619.73 1579.46 C 1575.47 1631.72 1569.17 1699.15 1605.65 1730.07 C 1642.13 1760.99 1707.59 1743.70 1751.84 1691.45 C 1751.87 1691.41 1751.90 1691.38 1751.93 1691.35 C 1796.19 1639.09 1802.49 1571.66 1766.01 1540.74 C 1729.53 1509.82 1664.07 1527.11 1619.82 1579.36 C 1619.79 1579.39 1619.76 1579.43 1619.73 1579.46 Z" fill="#cfb396" fill-rule="nonzero" group-id="5" node-id="81" stroke="none" target-height="251.17004" target-width="233.31995" target-x="1569.17" target-y="1509.82"></path><path d="M 1137.20 1600.42 C 1137.20 1627.11 1158.84 1648.74 1185.53 1648.74 C 1212.22 1648.74 1233.86 1627.11 1233.86 1600.42 C 1233.86 1573.72 1212.22 1552.09 1185.53 1552.09 C 1158.84 1552.09 1137.20 1573.72 1137.20 1600.42 L 1137.20 1600.42 Z" fill="#464655" fill-rule="nonzero" group-id="5" node-id="83" stroke="none" target-height="96.650024" target-width="96.660034" target-x="1137.2" target-y="1552.09"></path><path d="M 1668.82 1600.42 C 1668.82 1627.11 1690.46 1648.74 1717.15 1648.74 C 1743.84 1648.74 1765.48 1627.11 1765.48 1600.42 C 1765.50 1573.72 1743.89 1552.07 1717.19 1552.04 C 1690.50 1552.02 1668.85 1573.63 1668.82 1600.32 C 1668.82 1600.35 1668.82 1600.38 1668.82 1600.42 Z" fill="#464655" fill-rule="nonzero" group-id="5" node-id="85" stroke="none" target-height="96.71997" target-width="96.68005" target-x="1668.82" target-y="1552.02"></path></svg>