<?xml version="1.0" standalone="no"?><!DOCTYPE svg PUBLIC "-//W3C//DTD SVG 1.1//EN" "http://www.w3.org/Graphics/SVG/1.1/DTD/svg11.dtd"><svg height="2903" node-id="1" sillyvg="true" template-height="2903" template-width="2903" version="1.1" viewBox="0 0 2903 2903" width="2903" xmlns="http://www.w3.org/2000/svg" xmlns:xlink="http://www.w3.org/1999/xlink"><defs node-id="24"></defs><g node-id="77"><path d="M 1451.34 2807.30 C 1268.29 2807.30 1090.71 2771.44 923.54 2700.73 C 843.19 2666.75 765.69 2624.69 693.20 2575.71 C 621.41 2527.21 553.89 2471.50 492.53 2410.15 C 431.18 2348.79 375.47 2281.27 326.96 2209.47 C 277.99 2136.99 235.93 2059.49 201.94 1979.14 C 131.24 1811.97 95.38 1634.39 95.38 1451.34 C 95.38 1268.29 131.24 1090.71 201.94 923.54 C 235.93 843.19 277.99 765.69 326.96 693.20 C 375.47 621.40 431.18 553.89 492.53 492.53 C 553.89 431.17 621.41 375.47 693.20 326.96 C 765.69 277.99 843.19 235.93 923.54 201.94 C 1090.71 131.23 1268.29 95.38 1451.34 95.38 C 1634.39 95.38 1811.97 131.23 1979.14 201.94 C 2059.49 235.93 2136.99 277.99 2209.48 326.96 C 2281.27 375.47 2348.79 431.18 2410.15 492.53 C 2471.50 553.89 2527.21 621.40 2575.72 693.20 C 2624.69 765.69 2666.75 843.19 2700.74 923.54 C 2771.44 1090.71 2807.30 1268.29 2807.30 1451.34 C 2807.30 1634.39 2771.44 1811.97 2700.74 1979.14 C 2666.75 2059.49 2624.69 2136.99 2575.72 2209.47 C 2527.21 2281.27 2471.50 2348.79 2410.15 2410.15 C 2348.79 2471.50 2281.27 2527.21 2209.48 2575.71 C 2136.99 2624.69 2059.49 2666.75 1979.14 2700.74 C 1811.97 2771.44 1634.39 2807.30 1451.34 2807.30 Z" fill="#c8c7ce" fill-rule="nonzero" group-id="1" node-id="28" stroke="none" target-height="2711.9202" target-width="2711.9202" target-x="95.38" target-y="95.38"></path><path d="M 1451.34 105.38 C 2194.69 105.38 2797.30 707.99 2797.30 1451.34 C 2797.30 2194.69 2194.69 2797.30 1451.34 2797.30 C 707.99 2797.30 105.38 2194.69 105.38 1451.34 C 105.38 707.99 707.99 105.38 1451.34 105.38 M 1451.34 85.38 C 1358.67 85.38 1266.06 94.72 1176.07 113.13 C 1088.36 131.08 1002.09 157.86 919.64 192.74 C 838.70 226.97 760.63 269.35 687.61 318.68 C 615.28 367.54 547.27 423.65 485.46 485.46 C 423.65 547.27 367.54 615.28 318.68 687.61 C 269.34 760.63 226.97 838.70 192.74 919.64 C 157.86 1002.09 131.08 1088.36 113.13 1176.07 C 94.72 1266.06 85.38 1358.68 85.38 1451.34 C 85.38 1544.01 94.72 1636.62 113.13 1726.61 C 131.08 1814.32 157.86 1900.60 192.74 1983.04 C 226.97 2063.98 269.34 2142.05 318.68 2215.07 C 367.54 2287.40 423.65 2355.41 485.46 2417.22 C 547.27 2479.03 615.28 2535.14 687.61 2584.00 C 760.63 2633.34 838.70 2675.71 919.64 2709.95 C 1002.09 2744.82 1088.36 2771.60 1176.07 2789.55 C 1266.06 2807.96 1358.67 2817.30 1451.34 2817.30 C 1544.01 2817.30 1636.62 2807.96 1726.61 2789.55 C 1814.32 2771.60 1900.60 2744.82 1983.04 2709.95 C 2063.98 2675.71 2142.05 2633.34 2215.08 2584.00 C 2287.40 2535.14 2355.41 2479.03 2417.22 2417.22 C 2479.03 2355.41 2535.14 2287.40 2584.00 2215.07 C 2633.34 2142.05 2675.71 2063.98 2709.95 1983.04 C 2744.82 1900.60 2771.60 1814.32 2789.55 1726.61 C 2807.96 1636.62 2817.30 1544.01 2817.30 1451.34 C 2817.30 1358.68 2807.96 1266.06 2789.55 1176.07 C 2771.60 1088.36 2744.82 1002.09 2709.95 919.64 C 2675.71 838.70 2633.34 760.63 2584.00 687.61 C 2535.14 615.28 2479.03 547.27 2417.22 485.46 C 2355.41 423.65 2287.40 367.54 2215.08 318.68 C 2142.05 269.35 2063.98 226.97 1983.04 192.74 C 1900.60 157.87 1814.32 131.08 1726.61 113.13 C 1636.62 94.72 1544.01 85.38 1451.34 85.38 L 1451.34 85.38 Z" fill="#4780ab" fill-rule="nonzero" group-id="1" node-id="30" stroke="none" target-height="2731.9202" target-width="2731.9202" target-x="85.38" target-y="85.38"></path></g><g node-id="78"><path d="M 1451.34 2655.67 C 1288.78 2655.67 1131.05 2623.82 982.54 2561.01 C 911.17 2530.82 842.34 2493.46 777.95 2449.96 C 714.19 2406.89 654.24 2357.42 599.75 2302.93 C 545.26 2248.45 495.80 2188.49 452.72 2124.73 C 409.22 2060.34 371.86 1991.51 341.67 1920.14 C 278.86 1771.63 247.01 1613.91 247.01 1451.34 C 247.01 1288.78 278.86 1131.06 341.67 982.55 C 371.86 911.17 409.22 842.34 452.72 777.95 C 495.80 714.19 545.26 654.24 599.75 599.75 C 654.24 545.26 714.19 495.80 777.95 452.72 C 842.34 409.22 911.17 371.86 982.54 341.67 C 1131.05 278.86 1288.78 247.01 1451.34 247.01 C 1613.90 247.01 1771.63 278.86 1920.14 341.67 C 1991.51 371.86 2060.34 409.22 2124.73 452.72 C 2188.49 495.80 2248.45 545.26 2302.93 599.75 C 2357.42 654.24 2406.89 714.19 2449.96 777.95 C 2493.46 842.34 2530.82 911.17 2561.01 982.55 C 2623.82 1131.06 2655.67 1288.78 2655.67 1451.34 C 2655.67 1613.91 2623.82 1771.63 2561.01 1920.14 C 2530.82 1991.51 2493.46 2060.34 2449.96 2124.73 C 2406.89 2188.49 2357.42 2248.45 2302.93 2302.93 C 2248.45 2357.42 2188.49 2406.89 2124.73 2449.96 C 2060.34 2493.46 1991.51 2530.82 1920.14 2561.01 C 1771.63 2623.82 1613.90 2655.67 1451.34 2655.67 Z" fill="#bac0ce" fill-rule="nonzero" group-id="2" node-id="35" stroke="none" target-height="2408.66" target-width="2408.66" target-x="247.01" target-y="247.01"></path><g node-id="83"><path d="M 1451.34 297.01 C 2088.86 297.01 2605.67 813.82 2605.67 1451.34 C 2605.67 2088.86 2088.86 2605.67 1451.34 2605.67 C 813.82 2605.67 297.01 2088.86 297.01 1451.34 C 297.01 813.82 813.82 297.01 1451.34 297.01 M 1451.34 197.01 C 1366.30 197.01 1281.29 205.58 1198.65 222.49 C 1118.07 238.98 1038.81 263.59 963.07 295.62 C 888.72 327.07 817.02 365.98 749.96 411.29 C 683.57 456.15 621.13 507.66 564.39 564.39 C 507.66 621.13 456.14 683.57 411.29 749.96 C 365.98 817.02 327.07 888.72 295.62 963.07 C 263.58 1038.81 238.98 1118.08 222.49 1198.66 C 205.58 1281.29 197.01 1366.30 197.01 1451.34 C 197.01 1536.38 205.58 1621.40 222.49 1704.03 C 238.98 1784.61 263.59 1863.87 295.62 1939.62 C 327.07 2013.96 365.98 2085.66 411.29 2152.72 C 456.15 2219.12 507.66 2281.55 564.39 2338.29 C 621.13 2395.02 683.57 2446.53 749.96 2491.39 C 817.02 2536.70 888.72 2575.61 963.07 2607.06 C 1038.81 2639.09 1118.07 2663.70 1198.65 2680.19 C 1281.29 2697.09 1366.30 2705.67 1451.34 2705.67 C 1536.38 2705.67 1621.40 2697.09 1704.03 2680.19 C 1784.61 2663.70 1863.87 2639.09 1939.62 2607.06 C 2013.96 2575.61 2085.66 2536.70 2152.72 2491.39 C 2219.12 2446.53 2281.55 2395.02 2338.29 2338.29 C 2395.02 2281.55 2446.53 2219.12 2491.39 2152.72 C 2536.70 2085.66 2575.61 2013.96 2607.06 1939.61 C 2639.09 1863.87 2663.70 1784.61 2680.19 1704.03 C 2697.09 1621.40 2705.67 1536.38 2705.67 1451.34 C 2705.67 1366.30 2697.09 1281.29 2680.19 1198.65 C 2663.70 1118.07 2639.09 1038.81 2607.06 963.07 C 2575.61 888.72 2536.70 817.02 2491.39 749.96 C 2446.53 683.57 2395.02 621.13 2338.29 564.39 C 2281.55 507.66 2219.12 456.14 2152.72 411.29 C 2085.66 365.98 2013.96 327.07 1939.62 295.62 C 1863.87 263.58 1784.61 238.98 1704.03 222.49 C 1621.40 205.58 1536.38 197.01 1451.34 197.01 L 1451.34 197.01 Z" fill="#70717a" fill-rule="nonzero" group-id="2,7" node-id="39" stroke="none" target-height="2508.66" target-width="2508.66" target-x="197.01" target-y="197.01"></path></g></g><g node-id="79"><path d="M 1451.34 246.61 L 2656.05 1451.32 L 1451.34 2656.03 L 246.63 1451.32 Z" fill="#4c73a8" fill-rule="nonzero" group-id="3" node-id="45" stroke="none" target-height="2409.42" target-width="2409.42" target-x="246.63" target-y="246.61"></path></g><g node-id="80"><g node-id="84"><path d="M 1451.34 2797.14 L 1057.17 2402.96 L 499.72 2402.96 L 499.72 1845.51 L 105.55 1451.34 L 499.72 1057.17 L 499.72 499.72 L 1057.17 499.72 L 1451.34 105.55 L 1845.51 499.72 L 2402.96 499.72 L 2402.96 1057.16 L 2797.13 1451.34 L 2402.96 1845.51 L 2402.96 2402.96 L 1845.51 2402.96 L 1451.34 2797.14 Z M 529.72 2372.96 L 1069.59 2372.96 L 1451.34 2754.71 L 1833.09 2372.96 L 2372.96 2372.96 L 2372.96 1833.09 L 2754.71 1451.34 L 2372.96 1069.59 L 2372.96 529.72 L 1833.09 529.72 L 1451.34 147.97 L 1069.59 529.72 L 529.72 529.72 L 529.72 1069.59 L 147.97 1451.34 L 529.72 1833.09 L 529.72 2372.96 Z" fill="#4c73a8" fill-rule="nonzero" group-id="4,8" node-id="52" stroke="none" target-height="2691.5898" target-width="2691.5798" target-x="105.55" target-y="105.55"></path></g></g><g node-id="81"><path d="M 1482.72 2213.35 C 1439.60 2213.35 1402.85 2191.59 1381.88 2153.66 C 1341.08 2079.83 1327.80 1865.97 1316.08 1677.29 C 1314.90 1658.17 1313.74 1639.61 1312.60 1621.81 C 1276.81 1683.70 1266.20 1730.94 1263.15 1756.13 C 1261.09 1773.13 1246.58 1785.95 1229.41 1785.95 C 1214.27 1785.95 1201.35 1776.16 1197.24 1761.59 C 1176.26 1687.17 1207.85 1557.05 1225.83 1499.46 L 1213.60 1487.23 L 1130.67 1595.67 L 1118.32 1595.67 C 1098.03 1595.67 1063.08 1579.79 1029.28 1555.21 C 999.32 1533.42 957.68 1495.60 929.45 1439.13 C 898.54 1377.32 851.34 1352.04 805.70 1327.61 C 748.29 1296.87 688.94 1265.09 688.94 1166.29 C 688.94 1159.94 688.94 1143.08 728.69 1065.84 C 754.19 1016.28 786.39 961.06 819.34 910.34 C 858.83 849.56 897.60 798.20 931.46 761.79 C 976.80 713.03 1014.58 689.33 1046.95 689.33 C 1103.21 689.33 1152.62 710.36 1200.40 730.70 C 1243.70 749.13 1284.65 766.56 1331.13 770.22 C 1367.11 763.90 1407.54 760.70 1451.34 760.70 C 1495.14 760.70 1535.57 763.90 1571.55 770.22 C 1618.03 766.56 1658.98 749.13 1702.28 730.70 C 1750.06 710.36 1799.47 689.33 1855.72 689.33 C 1888.09 689.33 1925.87 713.03 1971.22 761.79 C 2005.08 798.20 2043.85 849.56 2083.34 910.34 C 2116.29 961.05 2148.49 1016.28 2173.99 1065.83 C 2213.74 1143.08 2213.74 1159.94 2213.74 1166.29 C 2213.74 1265.10 2154.39 1296.87 2096.98 1327.61 C 2051.34 1352.04 2004.14 1377.32 1973.23 1439.13 C 1945.00 1495.60 1903.36 1533.42 1873.40 1555.21 C 1839.60 1579.79 1804.65 1595.67 1784.36 1595.67 L 1772.00 1595.67 L 1689.08 1487.23 L 1678.27 1498.03 C 1687.21 1526.25 1698.32 1568.54 1705.83 1613.35 C 1716.52 1677.18 1717.02 1727.03 1707.31 1761.52 C 1703.21 1776.10 1690.28 1785.89 1675.13 1785.89 C 1657.95 1785.89 1643.43 1773.07 1641.37 1756.07 C 1638.26 1730.40 1627.31 1681.98 1590.02 1618.53 C 1585.93 1675.16 1579.94 1761.56 1575.29 1842.90 C 1568.98 1953.27 1567.79 2008.19 1568.11 2035.49 C 1581.70 2021.84 1602.58 1997.32 1631.36 1956.61 C 1641.28 1942.58 1657.46 1934.20 1674.64 1934.20 C 1682.85 1934.20 1691.09 1936.15 1698.46 1939.84 C 1711.28 1946.24 1720.79 1957.24 1725.25 1970.80 C 1729.69 1984.31 1728.58 1998.73 1722.12 2011.42 C 1709.14 2036.89 1682.12 2089.89 1635.32 2135.65 C 1583.34 2186.48 1530.57 2213.35 1482.72 2213.35 Z" fill="#464655" fill-rule="nonzero" group-id="5" node-id="58" stroke="none" target-height="1524.02" target-width="1524.8" target-x="688.94" target-y="689.33"></path><path d="M 1855.72 714.33 C 1962.76 714.33 2188.74 1122.68 2188.74 1166.29 C 2188.74 1320.91 2026.15 1277.40 1950.87 1427.95 C 1903.30 1523.10 1808.15 1570.67 1784.36 1570.67 L 1658.23 1405.73 C 1656.80 1407.15 1655.35 1408.55 1653.88 1409.94 C 1659.70 1444.59 1665.43 1475.52 1665.43 1475.52 L 1649.67 1491.28 C 1669.22 1546.49 1702.93 1684.78 1683.25 1754.75 C 1682.07 1758.93 1678.63 1760.89 1675.13 1760.89 C 1671.01 1760.89 1666.81 1758.15 1666.19 1753.06 C 1661.65 1715.62 1644.13 1647.21 1581.40 1559.55 L 1568.33 1572.62 C 1560.70 1674.75 1533.66 2049.67 1546.49 2070.20 C 1548.28 2073.07 1550.77 2074.37 1553.82 2074.37 C 1575.92 2074.37 1627.18 2005.84 1651.78 1971.04 C 1657.19 1963.37 1665.80 1959.20 1674.64 1959.20 C 1678.91 1959.20 1683.24 1960.17 1687.29 1962.20 C 1701.28 1969.19 1706.95 1986.13 1699.85 2000.06 C 1684.32 2030.54 1659.62 2076.93 1617.85 2117.77 C 1566.06 2168.42 1519.82 2188.35 1482.72 2188.35 C 1446.61 2188.35 1419.17 2169.43 1403.76 2141.56 C 1357.76 2058.32 1347.40 1754.56 1334.33 1572.60 L 1322.36 1560.63 C 1260.23 1647.82 1242.85 1715.85 1238.33 1753.12 C 1237.72 1758.20 1233.53 1760.94 1229.40 1760.94 C 1225.92 1760.94 1222.48 1758.98 1221.30 1754.81 C 1201.74 1685.43 1234.76 1548.77 1254.38 1492.65 L 1237.25 1475.52 C 1237.25 1475.52 1242.97 1444.59 1248.80 1409.94 C 1247.33 1408.55 1245.88 1407.15 1244.45 1405.73 L 1118.32 1570.67 C 1094.53 1570.67 999.38 1523.10 951.81 1427.95 C 876.53 1277.40 713.93 1320.91 713.93 1166.29 C 713.93 1122.68 939.91 714.33 1046.95 714.33 C 1146.73 714.33 1225.85 788.38 1332.46 795.38 C 1366.44 789.19 1405.78 785.69 1451.34 785.69 C 1496.90 785.69 1536.23 789.19 1570.22 795.38 C 1676.83 788.38 1755.94 714.33 1855.72 714.33 M 1855.72 664.33 C 1794.37 664.33 1742.58 686.38 1692.49 707.70 C 1652.12 724.88 1613.90 741.15 1572.61 745.03 C 1536.04 738.84 1495.28 735.70 1451.34 735.70 C 1407.40 735.70 1366.64 738.84 1330.07 745.03 C 1288.78 741.15 1250.56 724.88 1210.19 707.70 C 1160.10 686.38 1108.31 664.33 1046.96 664.33 C 1006.71 664.33 964.19 689.89 913.15 744.77 C 878.33 782.21 838.64 834.75 798.38 896.71 C 764.98 948.12 732.34 1004.11 706.46 1054.39 C 694.39 1077.84 684.72 1098.27 677.70 1115.13 C 667.92 1138.60 663.94 1153.42 663.94 1166.29 C 663.94 1217.25 678.34 1257.71 707.97 1289.98 C 732.64 1316.85 763.78 1333.52 793.90 1349.64 C 838.04 1373.28 879.73 1395.60 907.09 1450.31 C 937.57 1511.28 982.37 1552.00 1014.58 1575.43 C 1029.17 1586.04 1079.78 1620.67 1118.32 1620.67 L 1143.03 1620.67 L 1158.04 1601.04 L 1181.47 1570.41 C 1178.69 1583.36 1176.10 1596.84 1173.82 1610.58 C 1162.73 1677.48 1162.52 1730.57 1173.18 1768.38 C 1176.83 1781.34 1184.85 1792.70 1195.75 1800.36 C 1205.61 1807.28 1217.25 1810.94 1229.40 1810.94 C 1242.90 1810.94 1256.09 1806.30 1266.55 1797.88 C 1278.50 1788.25 1286.10 1774.50 1287.97 1759.15 C 1288.95 1751.06 1290.79 1740.48 1294.19 1727.68 C 1298.99 1803.11 1304.61 1883.42 1312.55 1954.70 C 1317.92 2002.94 1323.78 2042.18 1330.47 2074.67 C 1338.78 2115.02 1348.43 2144.82 1360.00 2165.75 C 1371.98 2187.42 1388.99 2205.47 1409.21 2217.95 C 1430.82 2231.29 1456.24 2238.35 1482.72 2238.35 C 1510.05 2238.35 1538.43 2231.09 1567.10 2216.79 C 1595.56 2202.59 1624.40 2181.30 1652.81 2153.52 C 1702.54 2104.90 1730.81 2049.43 1744.40 2022.77 C 1753.91 2004.10 1755.55 1982.87 1749.00 1962.98 C 1742.44 1943.05 1728.47 1926.88 1709.65 1917.47 C 1698.82 1912.06 1686.72 1909.20 1674.65 1909.20 C 1649.36 1909.19 1625.54 1921.52 1610.95 1942.18 C 1606.38 1948.63 1600.71 1956.52 1594.41 1964.95 C 1595.63 1930.81 1597.70 1888.44 1600.58 1838.68 C 1602.89 1798.64 1605.51 1757.53 1608.05 1719.53 C 1612.95 1736.00 1615.37 1749.33 1616.56 1759.08 C 1618.42 1774.43 1626.03 1788.19 1637.98 1797.82 C 1648.45 1806.25 1661.64 1810.89 1675.14 1810.89 C 1687.29 1810.89 1698.93 1807.23 1708.80 1800.30 C 1719.70 1792.64 1727.72 1781.28 1731.38 1768.30 C 1742.09 1730.22 1741.79 1676.70 1730.49 1609.22 C 1728.46 1597.12 1726.19 1585.24 1723.79 1573.77 L 1744.64 1601.04 L 1759.65 1620.67 L 1784.36 1620.67 C 1822.90 1620.67 1873.51 1586.04 1888.10 1575.43 C 1920.31 1552.00 1965.11 1511.28 1995.59 1450.31 C 2022.95 1395.60 2064.64 1373.28 2108.78 1349.64 C 2138.90 1333.52 2170.05 1316.85 2194.71 1289.98 C 2224.34 1257.70 2238.74 1217.24 2238.74 1166.29 C 2238.74 1153.42 2234.76 1138.60 2224.98 1115.12 C 2217.96 1098.27 2208.29 1077.84 2196.22 1054.39 C 2170.34 1004.11 2137.70 948.12 2104.30 896.71 C 2064.04 834.75 2024.35 782.21 1989.53 744.76 C 1938.49 689.89 1895.97 664.33 1855.72 664.33 L 1855.72 664.33 Z" fill="#244466" fill-rule="nonzero" group-id="5" node-id="60" stroke="none" target-height="1574.02" target-width="1574.8" target-x="663.94" target-y="664.33"></path></g><g node-id="82"><path d="M 1546.49 795.80 C 1665.42 799.57 1748.68 714.33 1855.72 714.33 C 1962.76 714.33 2188.74 1122.68 2188.74 1166.29 C 2188.74 1320.91 2026.14 1277.40 1950.87 1427.95 C 1903.30 1523.10 1808.15 1570.67 1784.36 1570.67 L 1475.13 1166.29 L 1546.49 795.80 M 1356.19 795.80 C 1237.25 799.57 1154.00 714.33 1046.95 714.33 C 939.91 714.33 713.93 1122.68 713.93 1166.29 C 713.93 1320.91 876.53 1277.40 951.81 1427.95 C 999.38 1523.10 1094.53 1570.67 1118.32 1570.67 L 1427.55 1166.29 L 1356.19 795.80" fill="#937e6d" fill-rule="nonzero" group-id="6" node-id="65" stroke="none" target-height="856.34" target-width="1474.81" target-x="713.93" target-y="714.33"></path><path d="M 1142.10 1071.14 C 1142.10 1071.14 1118.32 1356.59 1308.62 1451.74 L 1308.62 1071.14 L 1142.10 1071.14 Z M 1760.57 1071.14 C 1760.57 1071.14 1784.36 1356.59 1594.06 1451.74 L 1594.06 1071.14 L 1760.57 1071.14 Z" fill="#877364" fill-rule="nonzero" group-id="6" node-id="67" stroke="none" target-height="380.59998" target-width="666.04004" target-x="1118.32" target-y="1071.14"></path><path d="M 1238.33 1753.12 C 1243.08 1713.92 1262.06 1640.67 1332.40 1546.89 L 1261.05 1475.53 C 1243.94 1513.15 1199.27 1676.67 1221.31 1754.81 C 1223.87 1763.91 1237.19 1762.51 1238.33 1753.12 Z M 1643.49 1475.53 L 1572.13 1546.89 C 1642.43 1640.62 1661.43 1713.84 1666.19 1753.06 C 1667.33 1762.46 1680.68 1763.86 1683.25 1754.75 C 1705.24 1676.59 1660.59 1513.14 1643.49 1475.53 Z" fill="#ffebd2" fill-rule="nonzero" group-id="6" node-id="69" stroke="none" target-height="288.38" target-width="505.96997" target-x="1199.27" target-y="1475.53"></path><path d="M 1784.36 1047.36 C 1784.36 999.78 1808.15 785.70 1451.34 785.70 C 1094.53 785.70 1118.32 999.78 1118.32 1047.36 C 1118.32 1094.93 1237.25 1094.93 1261.04 1154.40 L 1261.04 1320.38 C 1261.04 1346.90 1237.25 1475.52 1237.25 1475.52 L 1334.33 1572.60 C 1347.39 1754.57 1357.76 2058.32 1403.76 2141.56 C 1434.98 2198.06 1515.62 2217.73 1617.85 2117.77 C 1659.62 2076.93 1684.32 2030.54 1699.85 2000.06 C 1706.95 1986.13 1701.28 1969.19 1687.29 1962.20 C 1674.85 1955.98 1659.81 1959.68 1651.78 1971.04 C 1623.79 2010.63 1561.30 2093.89 1546.49 2070.20 C 1533.65 2049.67 1560.70 1674.75 1568.33 1572.62 L 1665.43 1475.52 C 1665.43 1475.52 1641.64 1346.90 1641.64 1320.38 L 1641.64 1154.40 C 1665.42 1094.93 1784.36 1094.93 1784.36 1047.36 Z" fill="#9f8976" fill-rule="nonzero" group-id="6" node-id="71" stroke="none" target-height="1432.03" target-width="713.62" target-x="1094.53" target-y="785.7"></path><path d="M 1189.68 1154.39 C 1189.68 1174.10 1205.66 1190.07 1225.36 1190.07 C 1245.07 1190.07 1261.04 1174.10 1261.04 1154.39 C 1261.04 1134.68 1245.07 1118.71 1225.36 1118.71 C 1205.65 1118.71 1189.68 1134.68 1189.68 1154.39 Z" fill="#464655" fill-rule="nonzero" group-id="6" node-id="73" stroke="none" target-height="71.359985" target-width="71.359985" target-x="1189.68" target-y="1118.71"></path><path d="M 1641.64 1154.39 C 1641.64 1174.10 1657.61 1190.07 1677.32 1190.07 C 1697.02 1190.07 1713.00 1174.10 1713.00 1154.39 C 1713.00 1134.68 1697.02 1118.71 1677.32 1118.71 C 1657.61 1118.71 1641.64 1134.68 1641.64 1154.39 Z" fill="#464655" fill-rule="nonzero" group-id="6" node-id="75" stroke="none" target-height="71.359985" target-width="71.359985" target-x="1641.64" target-y="1118.71"></path></g></svg>