<?xml version="1.0" standalone="no"?><!DOCTYPE svg PUBLIC "-//W3C//DTD SVG 1.1//EN" "http://www.w3.org/Graphics/SVG/1.1/DTD/svg11.dtd"><svg height="2903" node-id="1" sillyvg="true" template-height="2903" template-width="2903" version="1.1" viewBox="0 0 2903 2903" width="2903" xmlns="http://www.w3.org/2000/svg" xmlns:xlink="http://www.w3.org/1999/xlink"><defs node-id="20"></defs><g node-id="61"><path d="M 1451.34 2807.30 C 1268.29 2807.30 1090.71 2771.44 923.54 2700.73 C 843.19 2666.75 765.69 2624.69 693.20 2575.71 C 621.41 2527.21 553.89 2471.50 492.53 2410.14 C 431.18 2348.79 375.47 2281.27 326.96 2209.47 C 277.99 2136.98 235.93 2059.49 201.94 1979.14 C 131.24 1811.96 95.38 1634.39 95.38 1451.34 C 95.38 1268.29 131.24 1090.71 201.94 923.53 C 235.93 843.19 277.99 765.69 326.96 693.20 C 375.47 621.40 431.18 553.89 492.53 492.53 C 553.89 431.17 621.41 375.47 693.20 326.96 C 765.69 277.99 843.19 235.93 923.54 201.94 C 1090.71 131.23 1268.29 95.38 1451.34 95.38 C 1634.39 95.38 1811.97 131.23 1979.14 201.94 C 2059.49 235.93 2136.99 277.99 2209.48 326.96 C 2281.28 375.47 2348.79 431.17 2410.15 492.53 C 2471.50 553.89 2527.21 621.40 2575.72 693.20 C 2624.69 765.69 2666.75 843.19 2700.74 923.53 C 2771.45 1090.71 2807.30 1268.29 2807.30 1451.34 C 2807.30 1634.39 2771.45 1811.96 2700.74 1979.14 C 2666.75 2059.49 2624.69 2136.98 2575.72 2209.47 C 2527.21 2281.27 2471.50 2348.79 2410.15 2410.14 C 2348.79 2471.50 2281.28 2527.21 2209.48 2575.71 C 2136.99 2624.69 2059.49 2666.75 1979.14 2700.73 C 1811.97 2771.44 1634.39 2807.30 1451.34 2807.30 Z" fill="#908068" fill-rule="nonzero" group-id="1" node-id="24" stroke="none" target-height="2711.9202" target-width="2711.9202" target-x="95.38" target-y="95.38"></path><path d="M 1451.34 105.38 C 2194.69 105.38 2797.30 707.99 2797.30 1451.34 C 2797.30 2194.69 2194.69 2797.30 1451.34 2797.30 C 707.99 2797.30 105.38 2194.69 105.38 1451.34 C 105.38 707.99 707.99 105.38 1451.34 105.38 M 1451.34 85.38 C 1358.67 85.38 1266.06 94.72 1176.07 113.13 C 1088.36 131.08 1002.09 157.86 919.64 192.73 C 838.70 226.97 760.63 269.34 687.61 318.68 C 615.28 367.54 547.27 423.65 485.46 485.46 C 423.65 547.27 367.54 615.28 318.68 687.61 C 269.35 760.63 226.97 838.70 192.74 919.64 C 157.87 1002.09 131.08 1088.36 113.13 1176.07 C 94.72 1266.06 85.38 1358.67 85.38 1451.34 C 85.38 1544.00 94.72 1636.62 113.13 1726.61 C 131.08 1814.32 157.86 1900.59 192.74 1983.04 C 226.97 2063.98 269.35 2142.05 318.68 2215.07 C 367.54 2287.40 423.65 2355.41 485.46 2417.22 C 547.27 2479.02 615.28 2535.14 687.61 2584.00 C 760.63 2633.33 838.70 2675.71 919.64 2709.94 C 1002.08 2744.82 1088.36 2771.60 1176.07 2789.55 C 1266.06 2807.96 1358.67 2817.30 1451.34 2817.30 C 1544.00 2817.30 1636.62 2807.96 1726.61 2789.55 C 1814.32 2771.60 1900.60 2744.82 1983.04 2709.94 C 2063.98 2675.71 2142.05 2633.34 2215.07 2584.00 C 2287.40 2535.14 2355.41 2479.02 2417.22 2417.22 C 2479.03 2355.41 2535.14 2287.40 2584.00 2215.07 C 2633.34 2142.05 2675.71 2063.98 2709.95 1983.04 C 2744.82 1900.59 2771.60 1814.32 2789.55 1726.61 C 2807.96 1636.62 2817.30 1544.01 2817.30 1451.34 C 2817.30 1358.67 2807.96 1266.06 2789.55 1176.07 C 2771.60 1088.36 2744.82 1002.09 2709.95 919.64 C 2675.71 838.70 2633.34 760.63 2584.00 687.61 C 2535.14 615.28 2479.03 547.27 2417.22 485.46 C 2355.41 423.65 2287.40 367.54 2215.07 318.68 C 2142.05 269.35 2063.98 226.97 1983.04 192.74 C 1900.60 157.86 1814.32 131.08 1726.61 113.13 C 1636.62 94.72 1544.00 85.38 1451.34 85.38 L 1451.34 85.38 Z" fill="#302726" fill-rule="nonzero" group-id="1" node-id="26" stroke="none" target-height="2731.9202" target-width="2731.9202" target-x="85.38" target-y="85.38"></path></g><g node-id="62"><path d="M 1451.34 2655.67 C 1288.78 2655.67 1131.05 2623.82 982.54 2561.01 C 911.17 2530.82 842.34 2493.46 777.95 2449.96 C 714.19 2406.88 654.24 2357.42 599.75 2302.93 C 545.26 2248.45 495.80 2188.49 452.72 2124.73 C 409.22 2060.34 371.86 1991.51 341.67 1920.14 C 278.86 1771.63 247.01 1613.90 247.01 1451.34 C 247.01 1288.78 278.86 1131.05 341.67 982.55 C 371.86 911.17 409.22 842.34 452.72 777.95 C 495.80 714.19 545.26 654.24 599.75 599.75 C 654.24 545.26 714.19 495.80 777.95 452.72 C 842.34 409.22 911.17 371.86 982.54 341.67 C 1131.05 278.86 1288.78 247.01 1451.34 247.01 C 1613.90 247.01 1771.63 278.86 1920.14 341.67 C 1991.51 371.86 2060.34 409.22 2124.73 452.72 C 2188.49 495.80 2248.45 545.26 2302.93 599.75 C 2357.42 654.24 2406.89 714.19 2449.96 777.95 C 2493.46 842.34 2530.82 911.17 2561.01 982.55 C 2623.82 1131.06 2655.67 1288.78 2655.67 1451.34 C 2655.67 1613.90 2623.82 1771.63 2561.01 1920.14 C 2530.82 1991.51 2493.46 2060.34 2449.96 2124.73 C 2406.89 2188.49 2357.42 2248.45 2302.93 2302.93 C 2248.45 2357.42 2188.49 2406.89 2124.73 2449.96 C 2060.34 2493.46 1991.51 2530.82 1920.14 2561.01 C 1771.63 2623.82 1613.90 2655.67 1451.34 2655.67 Z" fill="#ddd7d3" fill-rule="nonzero" group-id="2" node-id="31" stroke="none" target-height="2408.66" target-width="2408.66" target-x="247.01" target-y="247.01"></path><path d="M 1451.34 297.01 C 2088.86 297.01 2605.67 813.82 2605.67 1451.34 C 2605.67 2088.86 2088.86 2605.67 1451.34 2605.67 C 813.82 2605.67 297.01 2088.86 297.01 1451.34 C 297.01 813.82 813.82 297.01 1451.34 297.01 M 1451.34 197.01 C 1366.30 197.01 1281.29 205.58 1198.65 222.49 C 1118.07 238.98 1038.81 263.58 963.07 295.62 C 888.72 327.07 817.02 365.98 749.96 411.29 C 683.57 456.14 621.13 507.66 564.39 564.39 C 507.66 621.13 456.15 683.56 411.29 749.96 C 365.98 817.02 327.07 888.72 295.62 963.07 C 263.59 1038.81 238.98 1118.07 222.49 1198.65 C 205.58 1281.29 197.01 1366.30 197.01 1451.34 C 197.01 1536.38 205.58 1621.40 222.49 1704.03 C 238.98 1784.61 263.59 1863.87 295.62 1939.61 C 327.07 2013.96 365.98 2085.66 411.29 2152.72 C 456.15 2219.12 507.66 2281.55 564.39 2338.29 C 621.13 2395.02 683.57 2446.53 749.96 2491.39 C 817.02 2536.70 888.72 2575.61 963.07 2607.06 C 1038.81 2639.09 1118.07 2663.70 1198.65 2680.19 C 1281.29 2697.10 1366.30 2705.67 1451.34 2705.67 C 1536.38 2705.67 1621.40 2697.10 1704.03 2680.19 C 1784.61 2663.70 1863.87 2639.09 1939.62 2607.06 C 2013.96 2575.61 2085.66 2536.70 2152.72 2491.39 C 2219.12 2446.53 2281.55 2395.02 2338.29 2338.29 C 2395.02 2281.55 2446.53 2219.12 2491.39 2152.72 C 2536.70 2085.66 2575.61 2013.96 2607.06 1939.61 C 2639.09 1863.87 2663.70 1784.61 2680.19 1704.03 C 2697.10 1621.40 2705.67 1536.38 2705.67 1451.34 C 2705.67 1366.30 2697.10 1281.29 2680.19 1198.65 C 2663.70 1118.07 2639.09 1038.81 2607.06 963.07 C 2575.61 888.72 2536.70 817.02 2491.39 749.96 C 2446.53 683.56 2395.02 621.13 2338.29 564.39 C 2281.55 507.66 2219.12 456.14 2152.72 411.29 C 2085.66 365.98 2013.96 327.07 1939.62 295.62 C 1863.87 263.58 1784.61 238.98 1704.03 222.49 C 1621.40 205.58 1536.38 197.01 1451.34 197.01 L 1451.34 197.01 Z" fill="#857365" fill-rule="nonzero" group-id="2" node-id="33" stroke="none" target-height="2508.66" target-width="2508.66" target-x="197.01" target-y="197.01"></path></g><g node-id="63"><path d="M 246.61 1453.51 L 1451.32 248.79 L 2656.03 1453.51 L 1451.32 2658.22 Z" fill="#5e695a" fill-rule="nonzero" group-id="3" node-id="38" stroke="none" target-height="2409.43" target-width="2409.42" target-x="246.61" target-y="248.79"></path></g><path d="M 2387.96 1839.30 L 2775.92 1451.34 L 2387.96 1063.38 L 2387.96 514.72 L 1839.30 514.72 L 1451.34 126.76 L 1063.38 514.72 L 514.72 514.72 L 514.72 1063.38 L 126.76 1451.34 L 514.72 1839.30 L 514.72 2387.96 L 1063.38 2387.96 L 1451.34 2775.92 L 1839.30 2387.96 L 2387.96 2387.96 Z" fill="none" node-id="41" stroke="#5e695a" stroke-linecap="butt" stroke-width="30" target-height="2649.16" target-width="2649.16" target-x="126.76" target-y="126.76"></path><path d="M 2336.79 1013.13 L 2336.99 1012.92 C 2336.79 1012.72 2336.38 1012.51 2336.17 1012.31 C 2335.97 1011.89 2335.56 1011.28 2335.35 1010.87 C 2303.51 961.56 2255.23 935.47 2195.65 935.47 C 2140.18 935.47 2083.89 958.69 2042.80 980.87 C 2011.98 930.13 1973.15 883.29 1926.52 841.38 C 1799.76 727.77 1631.70 665.11 1453.17 665.11 C 1274.64 665.11 1106.59 727.77 979.83 841.38 C 932.78 883.70 893.54 931.15 862.52 982.31 C 821.23 959.71 763.70 935.47 707.00 935.47 C 647.63 935.47 599.35 961.56 567.30 1010.87 C 567.09 1011.28 566.68 1011.89 566.48 1012.31 C 566.27 1012.51 565.86 1012.72 565.65 1012.92 L 565.86 1013.13 C 522.72 1081.54 518.40 1158.38 553.94 1230.08 C 566.07 1254.32 580.65 1274.04 593.18 1288.22 C 591.54 1307.73 590.10 1334.24 591.13 1363.41 C 593.80 1448.87 613.93 1516.26 650.91 1563.51 C 676.39 1595.97 709.47 1617.95 748.29 1628.64 C 738.43 1666.44 739.66 1706.71 752.20 1748.41 C 781.16 1843.74 879.37 1964.33 1008.80 2062.95 C 1094.26 2128.07 1265.81 2237.57 1453.17 2237.57 C 1640.54 2237.57 1811.88 2128.28 1897.55 2062.95 C 2026.98 1964.33 2125.18 1843.74 2154.15 1748.41 C 2166.89 1706.50 2167.91 1665.82 2157.85 1627.82 C 2195.24 1616.72 2227.08 1595.15 2251.94 1563.51 C 2288.92 1516.26 2309.05 1449.08 2311.72 1363.41 C 2312.55 1334.23 2311.31 1307.73 2309.67 1288.22 C 2321.99 1274.04 2336.79 1254.32 2348.91 1230.08 C 2384.24 1158.58 2379.93 1081.54 2336.79 1013.13 L 2336.79 1013.13 Z" fill="#2b3527" fill-rule="nonzero" node-id="43" stroke="none" target-height="1572.4601" target-width="1865.84" target-x="518.4" target-y="665.11"></path><path d="M 2019.58 1539.48 L 1997.39 1523.66 L 2010.13 1498.80 C 2046.49 1427.71 2064.98 1351.70 2064.98 1273.02 C 2064.98 972.25 1790.10 727.77 1451.94 727.77 C 1113.78 727.77 839.30 972.25 839.30 1272.81 C 839.30 1351.50 857.79 1427.51 894.16 1498.59 L 906.90 1523.45 L 884.71 1539.27 C 811.16 1592.07 785.07 1655.96 807.26 1729.10 C 832.11 1811.07 924.36 1922.22 1042.08 2012.00 C 1121.79 2072.81 1281.21 2174.91 1451.94 2174.91 C 1622.66 2174.91 1782.09 2072.81 1861.80 2012.00 C 1980.13 1922.42 2072.18 1811.28 2097.03 1729.10 C 2119.22 1655.96 2093.34 1592.07 2019.58 1539.48 Z" fill="#934016" fill-rule="nonzero" node-id="45" stroke="none" target-height="1447.1399" target-width="1334.1499" target-x="785.07" target-y="727.77"></path><path d="M 1960.82 1332.59 C 1960.82 1147.90 1835.30 998.34 1680.60 998.34 C 1586.30 998.34 1502.89 1054.01 1452.14 1139.27 C 1401.40 1054.01 1317.99 998.34 1223.69 998.34 C 1068.99 998.34 943.47 1148.11 943.47 1332.59 C 943.47 1445.38 990.31 1545.02 1062.01 1605.63 C 1045.36 1644.05 1032.83 1696.43 1054.20 1745.94 C 1094.67 1839.63 1282.86 2141.22 1452.14 2141.22 C 1621.43 2141.22 1809.62 1839.42 1850.09 1745.94 C 1871.45 1696.43 1858.92 1644.05 1842.28 1605.63 C 1914.19 1545.23 1960.82 1445.38 1960.82 1332.59 Z" fill="#e89172" fill-rule="nonzero" node-id="47" stroke="none" target-height="1142.8799" target-width="1017.35" target-x="943.47" target-y="998.34"></path><path d="M 819.79 1029.56 C 817.53 1028.54 812.39 1026.07 811.98 1025.87 C 809.93 1024.84 808.08 1024.02 806.02 1023.19 C 805.41 1022.99 800.48 1020.73 798.63 1019.91 C 797.80 1019.50 792.87 1017.44 791.23 1016.83 C 790.41 1016.41 785.27 1014.57 783.63 1013.95 C 782.60 1013.54 777.47 1011.69 775.82 1011.07 C 774.79 1010.66 765.55 1007.79 764.32 1007.38 C 762.88 1006.97 757.33 1005.32 756.10 1005.12 C 754.66 1004.71 749.11 1003.27 747.88 1003.06 C 746.44 1002.65 740.90 1001.62 739.66 1001.42 C 738.22 1001.21 732.68 1000.18 731.44 999.98 C 729.80 999.77 724.46 999.16 723.23 998.95 C 721.38 998.75 716.04 998.34 715.01 998.34 C 712.34 998.13 709.67 998.13 706.79 998.13 C 704.53 998.13 699.19 998.34 698.78 998.34 C 696.93 998.54 692.62 998.75 692.20 998.95 C 690.36 999.16 681.73 1000.60 679.88 1001.01 L 679.67 1001.01 C 671.04 1002.86 662.62 1005.94 654.61 1010.05 C 685.84 1026.48 721.58 1058.12 763.08 1106.40 C 775.00 1120.16 785.89 1133.72 795.54 1146.05 C 804.38 1108.66 816.91 1072.30 833.14 1037.16 C 828.83 1034.90 824.31 1032.44 819.58 1030.18 C 819.99 1029.56 819.79 1029.56 819.79 1029.56 Z M 2223.18 1000.60 C 2222.97 1000.60 2222.97 1000.60 2223.18 1000.60 C 2220.92 1000.18 2212.49 998.75 2210.64 998.54 C 2210.23 998.54 2205.92 998.13 2204.07 997.92 C 2203.66 997.92 2198.32 997.72 2196.06 997.72 C 2193.39 997.72 2190.72 997.72 2187.84 997.92 C 2186.81 997.92 2181.47 998.34 2179.62 998.54 C 2178.59 998.75 2173.05 999.36 2171.40 999.57 C 2170.17 999.77 2164.62 1000.59 2163.19 1001.00 C 2161.95 1001.21 2156.41 1002.44 2154.97 1002.65 C 2153.74 1002.86 2148.19 1004.29 2146.75 1004.70 C 2145.52 1005.11 2140.18 1006.55 2138.53 1006.97 C 2137.30 1007.38 2128.26 1010.25 2127.03 1010.66 C 2125.38 1011.28 2120.25 1013.13 2119.22 1013.54 C 2117.58 1014.15 2112.44 1016.21 2111.62 1016.41 C 2109.97 1017.03 2104.84 1019.29 2104.22 1019.50 C 2102.37 1020.32 2097.44 1022.37 2096.83 1022.78 C 2094.77 1023.60 2092.92 1024.63 2090.87 1025.45 C 2090.46 1025.66 2085.32 1028.12 2083.06 1029.15 C 2082.86 1029.15 2082.86 1029.36 2082.65 1029.36 C 2077.92 1031.62 2073.41 1034.08 2069.09 1036.34 C 2085.32 1071.27 2098.06 1107.84 2106.69 1145.23 C 2116.34 1132.90 2127.44 1119.34 2139.15 1105.58 C 2180.65 1057.50 2216.60 1025.66 2247.62 1009.22 C 2240.23 1005.52 2231.81 1002.65 2223.18 1000.60 Z" fill="#bf5c3a" fill-rule="nonzero" node-id="49" stroke="none" target-height="148.33008" target-width="1593.0101" target-x="654.61" target-y="997.72"></path><path d="M 2294.47 1058.94 C 2293.64 1058.94 2292.62 1058.94 2291.39 1059.15 C 2250.91 1064.49 2171.82 1154.88 2122.92 1224.12 C 2123.54 1230.49 2123.95 1236.65 2124.36 1243.02 C 2130.73 1240.14 2137.30 1239.32 2143.67 1240.55 C 2173.87 1246.31 2190.30 1298.08 2180.24 1356.22 C 2170.38 1414.15 2137.71 1456.47 2107.72 1450.72 C 2104.02 1450.11 2100.53 1448.67 2097.45 1446.61 C 2091.08 1465.93 2083.47 1485.24 2075.05 1503.93 C 2099.29 1524.27 2118.60 1546.25 2132.99 1569.67 C 2268.78 1539.88 2256.05 1336.09 2249.68 1279.18 C 2249.47 1278.15 2249.47 1277.33 2249.27 1276.30 L 2249.27 1276.10 C 2249.06 1275.27 2249.06 1274.45 2249.06 1273.63 L 2249.06 1273.42 C 2249.06 1272.60 2248.86 1271.99 2248.86 1271.37 L 2248.86 1271.16 C 2248.86 1270.55 2248.65 1269.93 2248.65 1269.31 L 2248.65 1268.90 C 2248.65 1268.49 2248.45 1268.08 2248.45 1267.67 L 2248.45 1267.26 C 2248.45 1266.85 2248.45 1266.64 2248.24 1266.23 L 2248.24 1266.03 C 2248.24 1265.82 2248.24 1265.62 2248.03 1265.41 L 2248.03 1265.00 L 2248.03 1264.80 L 2248.03 1264.59 C 2248.03 1264.59 2248.24 1264.59 2248.45 1264.39 C 2248.45 1264.39 2248.65 1264.39 2248.65 1264.18 L 2248.86 1263.97 L 2249.27 1263.56 C 2249.47 1263.36 2249.68 1263.36 2249.68 1263.15 L 2249.88 1262.95 L 2250.50 1262.33 L 2250.70 1262.13 L 2251.32 1261.51 L 2251.53 1261.31 C 2251.73 1261.10 2252.14 1260.89 2252.35 1260.48 L 2252.55 1260.28 C 2252.76 1260.07 2253.17 1259.66 2253.58 1259.46 L 2253.78 1259.25 L 2254.81 1258.22 L 2255.02 1258.02 C 2255.43 1257.61 2255.84 1257.40 2256.05 1256.99 L 2256.25 1256.79 L 2257.48 1255.55 L 2257.69 1255.35 C 2258.10 1254.94 2258.51 1254.53 2258.92 1253.91 L 2259.13 1253.71 L 2260.56 1252.27 L 2260.77 1252.06 C 2261.18 1251.45 2261.80 1251.04 2262.21 1250.42 L 2262.41 1250.21 C 2263.03 1249.60 2263.44 1248.98 2264.06 1248.36 C 2264.67 1247.75 2265.29 1247.13 2265.70 1246.51 C 2293.44 1214.87 2340.28 1143.79 2294.47 1058.94 L 2294.47 1058.94 Z M 795.14 1450.72 C 764.93 1456.48 732.47 1414.15 722.61 1356.22 C 712.75 1298.28 728.98 1246.51 759.18 1240.56 C 766.78 1239.12 774.59 1240.76 781.99 1244.87 C 782.19 1239.53 782.60 1234.18 783.01 1228.84 C 734.32 1158.99 652.56 1064.69 611.26 1059.15 C 610.03 1058.94 609.00 1058.94 608.18 1058.94 C 562.16 1143.59 609.00 1214.87 637.15 1246.72 C 637.76 1247.33 638.38 1247.95 638.79 1248.57 C 639.41 1249.18 639.82 1249.80 640.43 1250.42 L 640.64 1250.62 C 641.05 1251.24 641.67 1251.65 642.08 1252.27 L 642.28 1252.47 L 643.72 1253.91 L 643.93 1254.12 C 644.34 1254.53 644.75 1254.94 645.16 1255.55 L 645.37 1255.76 L 646.60 1256.99 L 646.80 1257.20 L 647.83 1258.22 L 648.04 1258.43 L 649.06 1259.46 L 649.27 1259.66 C 649.68 1260.07 649.88 1260.28 650.30 1260.48 L 650.50 1260.69 L 651.32 1261.51 L 651.53 1261.71 L 652.14 1262.33 L 652.35 1262.54 L 652.97 1263.15 L 653.17 1263.36 C 653.38 1263.56 653.58 1263.56 653.58 1263.77 L 653.99 1264.18 L 654.20 1264.38 L 654.40 1264.59 C 654.61 1264.80 654.81 1264.80 654.81 1264.80 C 654.81 1264.80 654.81 1265.41 654.61 1266.23 L 654.61 1266.44 C 654.61 1266.85 654.40 1267.26 654.40 1267.67 L 654.40 1267.88 C 654.40 1268.29 654.20 1268.90 654.20 1269.52 C 654.20 1270.14 653.99 1270.75 653.99 1271.37 L 653.99 1271.58 C 653.99 1272.19 653.79 1273.01 653.79 1273.84 C 653.79 1274.66 653.58 1275.48 653.38 1276.51 C 647.21 1329.31 631.19 1542.76 772.95 1570.50 C 787.53 1546.67 807.05 1524.48 831.29 1503.93 C 822.46 1484.42 814.65 1464.49 808.07 1444.56 C 804.38 1447.64 800.07 1449.90 795.14 1450.72 Z" fill="#d37248" fill-rule="nonzero" node-id="51" stroke="none" target-height="511.56006" target-width="1778.1201" target-x="562.16" target-y="1058.94"></path><path d="M 1181.58 1421.76 C 1181.58 1460.90 1214.50 1492.63 1255.12 1492.63 C 1295.74 1492.63 1328.67 1460.90 1328.67 1421.76 C 1328.67 1382.61 1295.74 1350.88 1255.12 1350.88 C 1214.50 1350.88 1181.58 1382.61 1181.58 1421.76 Z" fill="#472906" fill-rule="nonzero" node-id="53" stroke="none" target-height="141.75" target-width="147.09009" target-x="1181.58" target-y="1350.88"></path><path d="M 1573.97 1421.76 C 1573.94 1460.90 1606.84 1492.66 1647.46 1492.69 C 1688.08 1492.72 1721.04 1461.01 1721.07 1421.87 C 1721.07 1421.83 1721.07 1421.79 1721.07 1421.76 C 1721.10 1382.61 1688.20 1350.86 1647.58 1350.82 C 1606.96 1350.79 1574.01 1382.50 1573.97 1421.64 C 1573.97 1421.68 1573.97 1421.72 1573.97 1421.76 Z" fill="#472906" fill-rule="nonzero" node-id="55" stroke="none" target-height="141.92993" target-width="147.16003" target-x="1573.94" target-y="1350.79"></path><path d="M 1395.03 1666.85 C 1364.83 1645.69 1335.25 1637.06 1328.67 1647.54 C 1322.30 1658.02 1341.41 1683.49 1371.61 1704.65 C 1401.81 1725.81 1431.40 1734.44 1437.97 1723.96 C 1444.54 1713.49 1425.23 1687.81 1395.03 1666.85 Z M 1573.97 1647.33 C 1567.60 1636.86 1537.82 1645.69 1507.62 1666.64 C 1477.41 1687.60 1458.31 1713.28 1464.68 1723.76 C 1471.05 1734.24 1500.84 1725.40 1531.04 1704.45 C 1561.24 1683.29 1580.34 1657.81 1573.97 1647.33 Z" fill="#472906" fill-rule="nonzero" node-id="57" stroke="none" target-height="97.579956" target-width="258.03992" target-x="1322.3" target-y="1636.86"></path><path d="M 1573.77 1895.10 C 1540.69 1895.10 1495.90 1885.03 1451.32 1843.33 C 1402.63 1888.73 1353.53 1896.74 1320.04 1894.89 C 1280.60 1892.84 1253.69 1877.02 1252.66 1876.40 L 1268.48 1846.00 C 1271.97 1848.05 1356.61 1895.31 1439.82 1807.38 L 1451.32 1795.05 L 1462.83 1807.38 C 1545.83 1895.51 1630.68 1848.05 1634.17 1846.00 L 1649.99 1876.40 C 1648.76 1877.02 1621.84 1892.63 1582.60 1894.89 C 1579.73 1895.10 1576.85 1895.10 1573.77 1895.10 L 1573.77 1895.10 Z" fill="#472906" fill-rule="nonzero" node-id="59" stroke="none" target-height="101.68994" target-width="397.32996" target-x="1252.66" target-y="1795.05"></path></svg>