<?xml version="1.0" standalone="no"?><!DOCTYPE svg PUBLIC "-//W3C//DTD SVG 1.1//EN" "http://www.w3.org/Graphics/SVG/1.1/DTD/svg11.dtd"><svg height="2903" node-id="1" sillyvg="true" template-height="2903" template-width="2903" version="1.1" viewBox="0 0 2903 2903" width="2903" xmlns="http://www.w3.org/2000/svg" xmlns:xlink="http://www.w3.org/1999/xlink"><defs node-id="19"></defs><g node-id="58"><path d="M 1451.34 2807.30 C 1268.29 2807.30 1090.71 2771.44 923.54 2700.73 C 843.19 2666.75 765.69 2624.69 693.20 2575.71 C 621.41 2527.21 553.89 2471.50 492.53 2410.14 C 431.18 2348.79 375.47 2281.27 326.96 2209.47 C 277.99 2136.98 235.93 2059.49 201.94 1979.14 C 131.24 1811.96 95.38 1634.39 95.38 1451.34 C 95.38 1268.29 131.24 1090.71 201.94 923.53 C 235.93 843.19 277.99 765.69 326.96 693.20 C 375.47 621.40 431.18 553.89 492.53 492.53 C 553.89 431.17 621.41 375.47 693.20 326.96 C 765.69 277.99 843.19 235.93 923.54 201.94 C 1090.71 131.23 1268.29 95.38 1451.34 95.38 C 1634.39 95.38 1811.97 131.23 1979.14 201.94 C 2059.49 235.93 2136.99 277.99 2209.48 326.96 C 2281.28 375.47 2348.79 431.17 2410.15 492.53 C 2471.50 553.89 2527.21 621.40 2575.72 693.20 C 2624.69 765.69 2666.75 843.19 2700.74 923.53 C 2771.45 1090.71 2807.30 1268.29 2807.30 1451.34 C 2807.30 1634.39 2771.45 1811.96 2700.74 1979.14 C 2666.75 2059.49 2624.69 2136.98 2575.72 2209.47 C 2527.21 2281.27 2471.50 2348.79 2410.15 2410.14 C 2348.79 2471.50 2281.28 2527.21 2209.48 2575.71 C 2136.99 2624.69 2059.49 2666.75 1979.14 2700.73 C 1811.97 2771.44 1634.39 2807.30 1451.34 2807.30 Z" fill="#f9da8d" fill-rule="nonzero" group-id="1" node-id="23" stroke="none" target-height="2711.9202" target-width="2711.9202" target-x="95.38" target-y="95.38"></path><path d="M 1451.34 105.38 C 2194.69 105.38 2797.30 707.99 2797.30 1451.34 C 2797.30 2194.69 2194.69 2797.30 1451.34 2797.30 C 707.99 2797.30 105.38 2194.69 105.38 1451.34 C 105.38 707.99 707.99 105.38 1451.34 105.38 M 1451.34 85.38 C 1358.67 85.38 1266.06 94.72 1176.07 113.13 C 1088.36 131.08 1002.09 157.86 919.64 192.73 C 838.70 226.97 760.63 269.34 687.61 318.68 C 615.28 367.54 547.27 423.65 485.46 485.46 C 423.65 547.27 367.54 615.28 318.68 687.61 C 269.34 760.63 226.97 838.70 192.74 919.64 C 157.87 1002.09 131.08 1088.36 113.14 1176.07 C 94.72 1266.06 85.38 1358.67 85.38 1451.34 C 85.38 1544.00 94.72 1636.62 113.14 1726.61 C 131.08 1814.32 157.86 1900.59 192.74 1983.04 C 226.97 2063.98 269.34 2142.05 318.68 2215.07 C 367.54 2287.40 423.65 2355.41 485.46 2417.22 C 547.27 2479.02 615.28 2535.14 687.61 2584.00 C 760.63 2633.33 838.70 2675.71 919.64 2709.94 C 1002.09 2744.81 1088.36 2771.60 1176.07 2789.54 C 1266.06 2807.96 1358.67 2817.30 1451.34 2817.30 C 1544.01 2817.30 1636.62 2807.96 1726.61 2789.54 C 1814.32 2771.60 1900.60 2744.81 1983.04 2709.94 C 2063.98 2675.71 2142.05 2633.33 2215.08 2584.00 C 2287.40 2535.14 2355.41 2479.02 2417.22 2417.22 C 2479.03 2355.41 2535.14 2287.40 2584.00 2215.07 C 2633.34 2142.05 2675.71 2063.98 2709.95 1983.04 C 2744.82 1900.59 2771.60 1814.32 2789.55 1726.61 C 2807.96 1636.62 2817.30 1544.01 2817.30 1451.34 C 2817.30 1358.67 2807.96 1266.06 2789.55 1176.07 C 2771.60 1088.36 2744.82 1002.09 2709.95 919.64 C 2675.71 838.70 2633.34 760.63 2584.00 687.61 C 2535.14 615.28 2479.03 547.27 2417.22 485.46 C 2355.41 423.65 2287.40 367.54 2215.08 318.68 C 2142.05 269.34 2063.98 226.97 1983.04 192.73 C 1900.60 157.86 1814.32 131.08 1726.61 113.13 C 1636.62 94.72 1544.00 85.38 1451.34 85.38 L 1451.34 85.38 Z" fill="#90826b" fill-rule="nonzero" group-id="1" node-id="25" stroke="none" target-height="2731.9202" target-width="2731.9202" target-x="85.38" target-y="85.38"></path></g><g node-id="59"><path d="M 1451.34 2655.67 C 1288.78 2655.67 1131.05 2623.82 982.54 2561.01 C 911.17 2530.82 842.34 2493.46 777.95 2449.96 C 714.19 2406.88 654.24 2357.42 599.75 2302.93 C 545.26 2248.45 495.80 2188.49 452.72 2124.73 C 409.22 2060.34 371.86 1991.51 341.67 1920.14 C 278.86 1771.63 247.01 1613.90 247.01 1451.34 C 247.01 1288.78 278.86 1131.05 341.67 982.55 C 371.86 911.17 409.22 842.34 452.72 777.95 C 495.80 714.19 545.26 654.24 599.75 599.75 C 654.24 545.26 714.19 495.80 777.95 452.72 C 842.34 409.22 911.17 371.86 982.54 341.67 C 1131.05 278.86 1288.78 247.01 1451.34 247.01 C 1613.90 247.01 1771.63 278.86 1920.14 341.67 C 1991.51 371.86 2060.34 409.22 2124.73 452.72 C 2188.49 495.80 2248.45 545.26 2302.93 599.75 C 2357.42 654.24 2406.89 714.19 2449.96 777.95 C 2493.46 842.34 2530.82 911.17 2561.01 982.55 C 2623.82 1131.06 2655.67 1288.78 2655.67 1451.34 C 2655.67 1613.90 2623.82 1771.63 2561.01 1920.14 C 2530.82 1991.51 2493.46 2060.34 2449.96 2124.73 C 2406.89 2188.49 2357.42 2248.45 2302.93 2302.93 C 2248.45 2357.42 2188.49 2406.89 2124.73 2449.96 C 2060.34 2493.46 1991.51 2530.82 1920.14 2561.01 C 1771.63 2623.82 1613.90 2655.67 1451.34 2655.67 Z" fill="#f1eed8" fill-rule="nonzero" group-id="2" node-id="30" stroke="none" target-height="2408.66" target-width="2408.66" target-x="247.01" target-y="247.01"></path><path d="M 1451.34 297.01 C 2088.86 297.01 2605.67 813.82 2605.67 1451.34 C 2605.67 2088.86 2088.86 2605.67 1451.34 2605.67 C 813.82 2605.67 297.01 2088.86 297.01 1451.34 C 297.01 813.82 813.82 297.01 1451.34 297.01 M 1451.34 197.01 C 1366.30 197.01 1281.29 205.58 1198.65 222.49 C 1118.07 238.98 1038.81 263.58 963.07 295.62 C 888.72 327.07 817.02 365.98 749.96 411.29 C 683.57 456.14 621.13 507.66 564.39 564.39 C 507.66 621.13 456.15 683.56 411.29 749.96 C 365.98 817.02 327.07 888.72 295.62 963.07 C 263.59 1038.81 238.98 1118.07 222.49 1198.65 C 205.58 1281.29 197.01 1366.30 197.01 1451.34 C 197.01 1536.38 205.58 1621.40 222.49 1704.03 C 238.98 1784.61 263.59 1863.87 295.62 1939.61 C 327.07 2013.96 365.98 2085.66 411.29 2152.72 C 456.15 2219.12 507.66 2281.55 564.39 2338.29 C 621.13 2395.02 683.57 2446.53 749.96 2491.39 C 817.02 2536.70 888.72 2575.61 963.07 2607.06 C 1038.81 2639.09 1118.07 2663.70 1198.65 2680.19 C 1281.29 2697.10 1366.30 2705.67 1451.34 2705.67 C 1536.38 2705.67 1621.40 2697.10 1704.03 2680.19 C 1784.61 2663.70 1863.87 2639.09 1939.62 2607.06 C 2013.96 2575.61 2085.66 2536.70 2152.72 2491.39 C 2219.12 2446.53 2281.55 2395.02 2338.29 2338.29 C 2395.02 2281.55 2446.53 2219.12 2491.39 2152.72 C 2536.70 2085.66 2575.61 2013.96 2607.06 1939.61 C 2639.09 1863.87 2663.70 1784.61 2680.19 1704.03 C 2697.10 1621.40 2705.67 1536.38 2705.67 1451.34 C 2705.67 1366.30 2697.10 1281.29 2680.19 1198.65 C 2663.70 1118.07 2639.09 1038.81 2607.06 963.07 C 2575.61 888.72 2536.70 817.02 2491.39 749.96 C 2446.53 683.56 2395.02 621.13 2338.29 564.39 C 2281.55 507.66 2219.12 456.14 2152.72 411.29 C 2085.66 365.98 2013.96 327.07 1939.62 295.62 C 1863.87 263.58 1784.61 238.98 1704.03 222.49 C 1621.40 205.58 1536.38 197.01 1451.34 197.01 L 1451.34 197.01 Z" fill="#e5d6d2" fill-rule="nonzero" group-id="2" node-id="32" stroke="none" target-height="2508.66" target-width="2508.66" target-x="197.01" target-y="197.01"></path></g><g node-id="60"><path d="M 246.61 1453.51 L 1451.32 248.79 L 2656.03 1453.51 L 1451.32 2658.22 Z" fill="#401c16" fill-rule="nonzero" group-id="3" node-id="37" stroke="none" target-height="2409.43" target-width="2409.42" target-x="246.61" target-y="248.79"></path></g><path d="M 2387.96 1839.30 L 2775.92 1451.34 L 2387.96 1063.38 L 2387.96 514.72 L 1839.30 514.72 L 1451.34 126.76 L 1063.38 514.72 L 514.72 514.72 L 514.72 1063.38 L 126.76 1451.34 L 514.72 1839.30 L 514.72 2387.96 L 1063.38 2387.96 L 1451.34 2775.92 L 1839.30 2387.96 L 2387.96 2387.96 Z" fill="none" node-id="40" stroke="#401c16" stroke-linecap="butt" stroke-width="30" target-height="2649.16" target-width="2649.16" target-x="126.76" target-y="126.76"></path><path d="M 2144.65 1637.62 L 1989.25 1572.08 C 1986.95 1571.10 1985.47 1568.80 1985.47 1566.00 L 1985.47 1565.51 C 1985.47 1501.28 1974.46 1438.53 1952.95 1378.90 C 1990.89 1319.76 2021.78 1258.81 2044.94 1197.38 C 2068.43 1135.12 2084.04 1072.20 2091.43 1010.27 C 2104.41 902.51 2087.98 833.51 2087.32 830.55 L 2078.45 794.25 L 2041.33 792.77 C 2037.55 792.61 2033.77 792.61 2029.99 792.61 C 1978.57 792.61 1923.87 805.91 1867.36 832.03 C 1823.99 852.07 1779.31 879.84 1734.46 914.50 C 1659.23 972.65 1609.12 1030.47 1607.15 1032.94 L 1598.28 1043.12 C 1548.84 1028.34 1497.42 1020.95 1445.02 1020.95 C 1392.29 1020.95 1340.70 1028.50 1291.09 1043.45 L 1282.06 1032.94 C 1279.92 1030.47 1229.98 972.65 1154.75 914.50 C 1109.90 879.84 1065.22 852.07 1021.85 832.03 C 965.34 805.91 910.64 792.61 859.22 792.61 C 855.44 792.61 851.66 792.61 847.89 792.77 L 810.76 794.25 L 801.89 830.55 C 801.23 833.51 784.80 902.51 797.78 1010.27 C 805.18 1072.20 820.95 1135.28 844.27 1197.38 C 867.60 1259.14 898.65 1320.41 936.92 1379.88 C 915.57 1439.18 904.72 1501.61 904.72 1565.51 L 904.72 1566.00 C 904.72 1569.62 902.75 1572.74 899.63 1574.22 L 757.04 1637.95 L 714.33 1657.01 L 730.92 1701.03 C 732.57 1705.31 771.01 1804.85 877.45 1904.73 C 939.38 1962.88 1011.83 2009.37 1092.98 2043.38 C 1184.32 2081.49 1286.49 2103.50 1397.38 2108.76 L 1397.21 2110.07 L 1505.14 2110.07 L 1504.97 2108.76 C 1611.75 2103.66 1710.48 2083.13 1799.02 2047.65 C 1882.64 2014.14 1957.22 1967.32 2020.95 1908.51 C 2130.36 1807.48 2169.78 1705.31 2171.43 1701.03 L 2188.35 1656.19 L 2144.65 1637.62 Z" fill="#0a0302" fill-rule="nonzero" node-id="42" stroke="none" target-height="1317.4601" target-width="1474.02" target-x="714.33" target-y="792.61"></path><path d="M 1970.19 1618.08 C 1949.50 1609.37 1936.19 1588.84 1936.19 1566.17 L 1936.19 1565.84 C 1936.19 1292.49 1716.23 1071.05 1445.02 1071.05 C 1173.80 1071.05 953.84 1292.65 953.84 1565.84 L 953.84 1566.17 C 953.84 1589.33 940.53 1610.36 919.51 1619.72 L 776.92 1683.46 C 776.92 1683.46 916.06 2051.10 1431.54 2060.30 L 1451.09 2060.30 C 1982.84 2060.30 2125.43 1683.29 2125.43 1683.29 L 1970.19 1618.08 Z" fill="#ffffff" fill-rule="nonzero" node-id="44" stroke="none" target-height="989.25" target-width="1348.51" target-x="776.92" target-y="1071.05"></path><path d="M 1827.11 1180.78 C 1868.84 1222.84 1903.17 1270.80 1929.13 1323.70 C 2090.61 1052.49 2039.35 842.71 2039.35 842.71 C 1858.82 835.81 1677.30 1028.99 1648.38 1061.19 C 1650.68 1062.18 1653.15 1063.16 1655.45 1064.15 C 1719.68 1091.58 1777.50 1130.68 1827.11 1180.78 Z M 1061.93 1180.78 C 1111.54 1130.85 1169.37 1091.58 1233.76 1064.15 C 1236.06 1063.16 1238.36 1062.18 1240.83 1061.19 C 1211.91 1028.99 1030.39 835.81 849.86 842.71 C 849.86 842.71 798.60 1052.49 960.08 1323.70 C 985.87 1270.81 1020.04 1222.84 1061.93 1180.78 Z" fill="#f4bc84" fill-rule="nonzero" node-id="46" stroke="none" target-height="487.88995" target-width="1292.0101" target-x="798.6" target-y="835.81"></path><path d="M 1936.19 1565.67 C 1936.19 1292.32 1716.23 1070.88 1445.02 1070.88 C 1173.80 1070.88 953.84 1292.49 953.84 1565.67 L 953.84 1566.00 C 953.84 1569.29 953.51 1572.57 953.02 1575.86 C 998.03 1604.61 1069.82 1640.58 1159.67 1652.08 C 1317.38 1672.12 1426.45 1791.22 1426.45 1905.39 L 1476.06 1905.39 C 1476.06 1791.22 1585.14 1672.12 1742.84 1652.08 C 1825.80 1641.57 1893.31 1610.03 1938.65 1582.59 C 1937.01 1577.34 1936.19 1571.75 1936.19 1566.00 L 1936.19 1565.67 Z" fill="#f4bc84" fill-rule="nonzero" node-id="48" stroke="none" target-height="834.51" target-width="985.63" target-x="953.02" target-y="1070.88"></path><path d="M 1378.81 1899.31 C 1378.78 1929.43 1410.97 1953.87 1450.71 1953.89 C 1490.45 1953.91 1522.69 1929.51 1522.71 1899.39 C 1522.71 1899.36 1522.71 1899.34 1522.71 1899.31 C 1522.71 1869.19 1490.50 1844.77 1450.76 1844.77 C 1411.03 1844.77 1378.81 1869.19 1378.81 1899.31 Z" fill="#401c16" fill-rule="nonzero" node-id="50" stroke="none" target-height="109.140015" target-width="143.92993" target-x="1378.78" target-y="1844.77"></path><path d="M 1190.06 1474.99 C 1190.06 1506.57 1215.44 1532.16 1246.74 1532.16 C 1278.04 1532.16 1303.41 1506.57 1303.41 1474.99 C 1303.41 1443.42 1278.04 1417.83 1246.74 1417.83 C 1215.44 1417.83 1190.06 1443.42 1190.06 1474.99 Z" fill="#401c16" fill-rule="nonzero" node-id="52" stroke="none" target-height="114.33008" target-width="113.349976" target-x="1190.06" target-y="1417.83"></path><path d="M 1597.62 1474.99 C 1597.62 1506.57 1623.00 1532.16 1654.30 1532.16 C 1685.60 1532.16 1710.97 1506.57 1710.97 1474.99 C 1710.97 1443.42 1685.60 1417.83 1654.30 1417.83 C 1623.00 1417.83 1597.62 1443.42 1597.62 1474.99 Z" fill="#401c16" fill-rule="nonzero" node-id="54" stroke="none" target-height="114.33008" target-width="113.349976" target-x="1597.62" target-y="1417.83"></path><path d="M 1739.23 1109.00 C 1770.77 1129.69 1800.17 1153.68 1827.11 1180.78 C 1846.66 1200.50 1864.57 1221.52 1880.83 1243.70 C 1996.81 1090.10 2007.81 874.91 2007.81 874.91 C 1911.71 907.60 1787.69 1050.02 1739.23 1109.00 Z M 880.74 874.91 C 880.74 874.91 891.91 1090.10 1007.72 1243.70 C 1023.99 1221.52 1041.73 1200.50 1061.44 1180.78 C 1088.38 1153.68 1117.79 1129.69 1149.33 1109.00 C 1100.87 1050.02 976.84 907.60 880.74 874.91 Z" fill="#e2896a" fill-rule="nonzero" node-id="56" stroke="none" target-height="368.78998" target-width="1127.0701" target-x="880.74" target-y="874.91"></path></svg>