<svg xml:space="preserve" viewBox="0 0 2902.68 2902.68" height="2902.68px" width="2902.68px" y="0px" x="0px" xmlns:xlink="http://www.w3.org/1999/xlink" xmlns="http://www.w3.org/2000/svg" id="图层_1" version="1.1">
<g>
	<path d="M1451.339,2807.297c-183.048,0-360.627-35.853-527.802-106.563
		c-80.349-33.983-157.844-76.047-230.333-125.02c-71.798-48.506-139.313-104.211-200.671-165.568s-117.063-128.873-165.568-200.671
		c-48.973-72.489-91.036-149.985-125.021-230.333c-70.709-167.176-106.562-344.754-106.562-527.803s35.853-360.627,106.562-527.803
		c33.984-80.348,76.048-157.844,125.021-230.333c48.506-71.798,104.211-139.313,165.568-200.671s128.873-117.063,200.671-165.568
		c72.489-48.973,149.984-91.036,230.333-125.02c167.175-70.71,344.754-106.563,527.802-106.563
		c183.049,0,360.628,35.853,527.804,106.562c80.349,33.984,157.844,76.048,230.333,125.021
		c71.798,48.506,139.313,104.211,200.671,165.568s117.063,128.873,165.568,200.671c48.973,72.489,91.035,149.985,125.02,230.333
		c70.709,167.176,106.562,344.754,106.562,527.803s-35.853,360.627-106.562,527.803c-33.984,80.348-76.047,157.844-125.02,230.333
		c-48.506,71.798-104.211,139.313-165.568,200.671s-128.873,117.063-200.671,165.568c-72.489,48.973-149.984,91.036-230.333,125.021
		C1811.967,2771.444,1634.388,2807.297,1451.339,2807.297z" fill="#421B16"></path>
	<path d="M1451.339,105.383c743.354,0,1345.957,602.605,1345.957,1345.957s-602.603,1345.957-1345.957,1345.957
		c-743.351,0-1345.956-602.605-1345.956-1345.957S707.988,105.383,1451.339,105.383 M1451.339,85.383
		c-92.665,0-185.278,9.337-275.267,27.751c-87.711,17.948-173.987,44.73-256.431,79.601
		c-80.943,34.236-159.011,76.61-232.036,125.944C615.28,367.541,547.27,423.655,485.462,485.463
		c-61.808,61.807-117.921,129.818-166.783,202.144c-49.334,73.024-91.708,151.093-125.944,232.035
		c-34.87,82.444-61.652,168.72-79.601,256.432c-18.414,89.988-27.751,182.602-27.751,275.267s9.337,185.278,27.751,275.267
		c17.948,87.712,44.73,173.987,79.601,256.432c34.236,80.942,76.61,159.011,125.944,232.035
		c48.862,72.325,104.976,140.337,166.783,202.144c61.808,61.808,129.818,117.922,202.144,166.784
		c73.025,49.335,151.093,91.708,232.036,125.944c82.443,34.87,168.72,61.652,256.431,79.6
		c89.988,18.415,182.602,27.752,275.267,27.752c92.666,0,185.279-9.337,275.268-27.752c87.712-17.947,173.987-44.729,256.432-79.6
		c80.943-34.236,159.011-76.609,232.035-125.944c72.325-48.862,140.337-104.976,202.145-166.784
		c61.807-61.807,117.921-129.818,166.783-202.144c49.334-73.024,91.708-151.093,125.943-232.035
		c34.87-82.444,61.652-168.72,79.601-256.432c18.414-89.988,27.751-182.602,27.751-275.267s-9.337-185.278-27.751-275.267
		c-17.948-87.712-44.73-173.987-79.601-256.432c-34.235-80.942-76.609-159.011-125.943-232.035
		c-48.862-72.325-104.977-140.337-166.783-202.144c-61.808-61.809-129.819-117.922-202.145-166.784
		c-73.024-49.334-151.092-91.708-232.035-125.944c-82.444-34.87-168.72-61.652-256.432-79.601
		C1636.618,94.72,1544.005,85.383,1451.339,85.383L1451.339,85.383z" fill="#6A2524"></path>
</g>
<g>
	<path d="M1451.34,2655.67c-162.562,0-320.287-31.85-468.796-94.662c-71.372-30.188-140.207-67.55-204.592-111.047
		c-63.761-43.076-123.717-92.544-178.203-147.029c-54.486-54.486-103.954-114.441-147.029-178.202
		c-43.498-64.385-80.86-133.22-111.048-204.592c-62.813-148.508-94.663-306.232-94.663-468.794
		c0-162.563,31.85-320.288,94.663-468.797c30.188-71.373,67.55-140.208,111.048-204.594
		c43.075-63.761,92.543-123.717,147.029-178.202c54.486-54.486,114.442-103.955,178.203-147.03
		c64.385-43.498,133.22-80.86,204.592-111.048c148.509-62.813,306.234-94.663,468.796-94.663
		c162.563,0,320.289,31.85,468.797,94.663c71.372,30.188,140.207,67.55,204.592,111.048
		c63.761,43.076,123.717,92.544,178.202,147.03c54.486,54.485,103.954,114.441,147.029,178.202
		c43.498,64.386,80.859,133.221,111.047,204.594c62.813,148.509,94.662,306.234,94.662,468.797
		c0,162.562-31.849,320.286-94.662,468.794c-30.188,71.372-67.549,140.206-111.047,204.592
		c-43.075,63.761-92.543,123.716-147.029,178.201c-54.485,54.486-114.441,103.954-178.202,147.03
		c-64.385,43.497-133.22,80.859-204.592,111.047C1771.629,2623.82,1613.902,2655.67,1451.34,2655.67z" fill="#F1EED8"></path>
	<g>
		<path d="M1451.34,297.01c637.523,0,1154.329,516.812,1154.329,1154.334
			c0,637.518-516.806,1154.326-1154.329,1154.326c-637.52,0-1154.331-516.809-1154.331-1154.326
			C297.009,813.821,813.82,297.01,1451.34,297.01 M1451.34,197.01c-85.039,0-170.055,8.573-252.686,25.482
			c-80.581,16.489-159.845,41.094-235.588,73.13c-74.346,31.446-146.045,70.362-213.105,115.667
			c-66.396,44.857-128.831,96.369-185.567,153.105c-56.735,56.736-108.248,119.171-153.105,185.569
			c-45.305,67.061-84.222,138.759-115.667,213.105c-32.036,75.743-56.641,155.007-73.13,235.588
			c-16.909,82.631-25.482,167.646-25.482,252.687c0,85.039,8.573,170.055,25.482,252.685
			c16.489,80.581,41.094,159.845,73.13,235.587c31.446,74.346,70.362,146.044,115.667,213.104
			c44.857,66.397,96.37,128.831,153.106,185.567c56.736,56.735,119.17,108.248,185.567,153.105
			c67.061,45.305,138.76,84.22,213.105,115.665c75.742,32.036,155.006,56.642,235.587,73.13
			c82.631,16.909,167.646,25.482,252.686,25.482c85.04,0,170.056-8.573,252.687-25.482c80.581-16.488,159.845-41.094,235.588-73.13
			c74.346-31.445,146.044-70.36,213.104-115.665c66.397-44.857,128.832-96.37,185.567-153.105
			c56.735-56.736,108.248-119.17,153.105-185.568c45.305-67.06,84.22-138.758,115.665-213.104
			c32.037-75.742,56.641-155.006,73.131-235.587c16.908-82.63,25.481-167.646,25.481-252.685c0-85.04-8.573-170.056-25.481-252.687
			c-16.49-80.581-41.094-159.845-73.131-235.588c-31.445-74.346-70.36-146.045-115.665-213.105
			c-44.857-66.397-96.369-128.832-153.105-185.568c-56.735-56.736-119.169-108.249-185.566-153.106
			c-67.061-45.305-138.76-84.221-213.105-115.667c-75.743-32.036-155.007-56.641-235.588-73.13
			C1621.396,205.583,1536.38,197.01,1451.34,197.01L1451.34,197.01z" fill="#E6DCA7"></path>
	</g>
</g>
<rect height="1703.739" width="1703.739" fill="#75B9AB" transform="matrix(0.7071 0.7071 -0.7071 0.7071 1451.3394 -601.1653)" y="599.471" x="599.472"></rect>
<g>
	<path d="M1451.338,2797.135l-394.172-394.174H499.719v-557.447L105.545,1451.34l394.174-394.174V499.719h557.449
		l394.172-394.174l394.174,394.174h557.445v557.446l394.174,394.175l-394.174,394.174v557.447h-557.447L1451.338,2797.135z
		 M529.719,2372.961h539.873l381.746,381.748l381.748-381.748h539.873v-539.873l381.748-381.748l-381.748-381.749V529.719h-539.871
		L1451.34,147.971l-381.746,381.748H529.719v539.873L147.971,1451.34l381.748,381.748V2372.961z" fill="#75B9AB"></path>
</g>
<g>
	<path d="M1451.319,2213.348c-39.513,0-77.84-10.156-107.924-28.597c-26.506-16.248-44.95-37.595-53.086-61.093
		c-16.233-9.003-30.589-21.032-41.975-35.247c-10.778-13.454-18.938-28.709-24.396-45.566l-44.306,11.077l-8.519-19.228
		c-30.983-69.935-111.711-80.376-157.073-80.376c-16.363,0-27.176,1.42-27.283,1.435l-28.313,3.785l-0.048-28.559v-23.478
		l-107.81,71.871l-32.57,0.003l-0.003-154.091l-41.132,13.71h-29.057l-0.003-25c0-0.84,0.003-1.695,0.01-2.562
		c0,0,0.018-2.022,0.026-2.632l0.041-2.604l0.063-2.803c0.009-0.388,0.079-2.788,0.079-2.788l0.093-2.788l0.115-2.954l0.13-2.921
		l0.145-2.938l0.161-2.977c0.039-0.719,0.196-3.339,0.196-3.339l0.177-2.781l0.199-2.959c0.069-0.994,0.303-4.176,0.303-4.176
		c2.796-37.064,13.116-133.595,49.348-255.069c34.852-116.85,82.537-220.532,141.782-308.313
		c-7.054-107.597-7.558-213.141-1.392-298.093c7.641-105.278,24.257-170.482,50.796-199.336
		c13.411-14.591,30.846-22.631,49.087-22.631c17.017,0,37.085,9.2,63.158,28.952c19.305,14.624,42.564,35.6,69.135,62.343
		c37.828,38.074,82.365,87.673,132.521,147.571c47.684-14.486,97.17-21.82,147.343-21.82c50.18,0,99.669,7.335,147.342,21.82
		c50.158-59.9,94.695-109.498,132.521-147.571c26.57-26.743,49.83-47.719,69.134-62.343c26.073-19.752,46.142-28.952,63.158-28.952
		c18.235,0,35.67,8.038,49.092,22.634c26.536,28.849,43.151,94.053,50.792,199.334c6.166,84.951,5.662,190.497-1.39,298.096
		c81.826,121.308,127.925,254.413,152.303,345.509c29.909,111.76,40.565,207.117,40.565,259.091v33.849l-32.63-10.04l-37.562-12.52
		v175.805l-140.383-93.587v52.155l-28.409-3.911c-0.061-0.008-10.866-1.428-27.233-1.428c-45.362,0-126.088,10.441-157.071,80.376
		l-7.851,17.719l-45.623-7.604c-5.696,16.813-14.108,31.989-25.144,45.324c-11.238,13.579-25.259,25.099-41.01,33.767
		c-8.159,23.425-26.533,44.701-52.883,60.897c-29.953,18.411-68.101,28.55-107.414,28.55H1451.319z" fill="#464655"></path>
	<path d="M1863.494,714.332c7.886,0,19.626,2.524,30.689,14.556c47.215,51.329,56.719,277.444,42.282,487.452
		c151.946,220.499,193.391,500.354,193.391,597.655l-0.003-0.001v0.001l-70.188-23.396v163.776l-0.003-0.002v0.002
		c0-0.001-0.001-0.002-0.001-0.003l-140.379-93.583v70.189c0,0-12.069-1.661-30.643-1.661c-48.9,0-142.836,11.526-179.929,95.249
		l-49.132-8.188c-8.331,47.774-37.763,76.35-68.823,90.15c-7.813,42.829-65.252,81.818-139.111,81.818h-0.325
		c-74.3,0-132.062-39.098-139.782-81.996c-31.76-14.246-61.728-43.969-69.062-93.91l-48.504,12.126
		c-37.096-83.729-131.033-95.249-179.931-95.249c-18.566,0-30.644,1.661-30.644,1.661v-70.189l-140.379,93.583
		c0,0.001-0.001,0.002-0.001,0.003v-0.002l-0.003,0.002V1790.6l-70.188,23.396v-0.001l-0.003,0.001c0-0.782,0.003-1.578,0.009-2.385
		c0.002-0.272,0.005-0.552,0.008-0.827c0.004-0.538,0.009-1.075,0.017-1.623c0.004-0.344,0.011-0.695,0.017-1.043
		c0.008-0.49,0.015-0.979,0.023-1.477c0.008-0.387,0.018-0.783,0.026-1.176c0.01-0.465,0.02-0.93,0.032-1.402
		c0.01-0.428,0.022-0.862,0.035-1.295c0.012-0.447,0.024-0.893,0.039-1.345c0.014-0.466,0.029-0.938,0.046-1.411
		c0.015-0.426,0.028-0.852,0.044-1.283c0.018-0.498,0.038-1.002,0.058-1.506c0.017-0.42,0.032-0.841,0.051-1.266
		c0.021-0.53,0.045-1.064,0.069-1.602c0.018-0.398,0.035-0.797,0.055-1.199c0.026-0.574,0.055-1.151,0.083-1.732
		c0.019-0.373,0.038-0.748,0.058-1.125c0.031-0.618,0.064-1.24,0.099-1.867c0.019-0.342,0.038-0.685,0.058-1.028
		c0.037-0.67,0.076-1.343,0.117-2.022c0.018-0.301,0.036-0.604,0.055-0.906c0.045-0.734,0.09-1.473,0.139-2.217
		c0.015-0.232,0.03-0.468,0.046-0.702c0.054-0.82,0.108-1.645,0.166-2.478c0.01-0.144,0.021-0.288,0.03-0.432
		c0.064-0.928,0.131-1.861,0.2-2.805c0.001-0.007,0.001-0.015,0.002-0.021c8.812-119.652,56.485-363.105,191.811-559.482
		c-14.439-210.011-4.934-436.118,42.282-487.45c11.058-12.031,22.804-14.556,30.687-14.556
		c46.636,0,173.378,142.827,256.421,242.838l1.434-0.486c49.896-16.871,102.1-25.306,154.303-25.306s104.406,8.435,154.302,25.306
		l1.434,0.486C1690.118,857.159,1816.858,714.332,1863.494,714.332 M1862.137,763.143c0.092,0.122,0.183,0.247,0.274,0.374
		C1862.32,763.39,1862.229,763.265,1862.137,763.143c-0.24-0.323-0.481-0.631-0.722-0.92c-0.001,0-0.001,0-0.001,0.001
		C1861.654,762.513,1861.896,762.819,1862.137,763.143 M1040.285,763.49c0.327-0.451,0.653-0.877,0.979-1.268
		C1040.938,762.613,1040.612,763.038,1040.285,763.49 M1863.399,764.98c-0.286-0.45-0.573-0.871-0.858-1.274
		C1862.826,764.109,1863.113,764.53,1863.399,764.98 M1039.304,764.94c0.208-0.326,0.417-0.625,0.624-0.927
		C1039.721,764.315,1039.512,764.614,1039.304,764.94 M1864.393,766.632c-0.25-0.438-0.5-0.848-0.748-1.25
		C1863.893,765.784,1864.143,766.194,1864.393,766.632 M1038.32,766.57c0.185-0.321,0.368-0.619,0.553-0.922
		C1038.688,765.951,1038.505,766.248,1038.32,766.57 M1865.387,768.468c-0.235-0.456-0.471-0.888-0.707-1.313
		C1864.916,767.58,1865.151,768.012,1865.387,768.468 M1037.336,768.379c0.173-0.332,0.346-0.645,0.518-0.961
		C1037.682,767.734,1037.509,768.047,1037.336,768.379 M1866.383,770.488c-0.229-0.484-0.457-0.946-0.686-1.4
		C1865.926,769.543,1866.154,770.004,1866.383,770.488 M1036.354,770.362c0.164-0.345,0.328-0.673,0.491-1.003
		C1036.682,769.689,1036.518,770.018,1036.354,770.362 M1867.379,772.692c-0.224-0.516-0.447-1.012-0.672-1.499
		C1866.932,771.681,1867.155,772.177,1867.379,772.692 M1035.373,772.52c0.156-0.356,0.312-0.699,0.467-1.043
		C1035.685,771.82,1035.529,772.163,1035.373,772.52 M1868.377,775.087c-0.222-0.554-0.444-1.09-0.666-1.616
		C1867.933,773.997,1868.155,774.533,1868.377,775.087 M1034.842,773.77c-0.074,0.177-0.148,0.354-0.223,0.534
		s-0.148,0.36-0.223,0.544c0.074-0.184,0.148-0.364,0.223-0.544C1034.693,774.125,1034.768,773.947,1034.842,773.77
		 M1869.373,777.665c-0.222-0.595-0.443-1.175-0.666-1.743C1868.93,776.49,1869.151,777.07,1869.373,777.665 M1033.426,777.338
		c0.14-0.37,0.279-0.734,0.419-1.094C1033.705,776.604,1033.565,776.968,1033.426,777.338 M1870.367,780.429
		c-0.221-0.638-0.443-1.263-0.665-1.873C1869.924,779.166,1870.146,779.791,1870.367,780.429 M1032.463,779.989
		c0.13-0.369,0.26-0.735,0.39-1.095C1032.723,779.254,1032.593,779.62,1032.463,779.989 M1871.361,783.387
		c-0.223-0.687-0.445-1.361-0.67-2.02C1870.916,782.025,1871.139,782.7,1871.361,783.387 M1031.51,782.79
		c0.119-0.358,0.236-0.718,0.355-1.067C1031.746,782.072,1031.629,782.432,1031.51,782.79 M1872.357,786.549
		c-0.227-0.744-0.454-1.479-0.682-2.194C1871.903,785.069,1872.131,785.805,1872.357,786.549 M1030.574,785.719
		c0.103-0.331,0.205-0.666,0.309-0.991C1030.779,785.053,1030.677,785.388,1030.574,785.719 M1873.355,789.92
		c-0.234-0.814-0.468-1.621-0.703-2.405C1872.887,788.299,1873.121,789.105,1873.355,789.92 M1029.662,788.744
		c0.082-0.277,0.162-0.562,0.244-0.836C1029.824,788.183,1029.744,788.467,1029.662,788.744 M1874.365,793.553
		c-0.246-0.914-0.493-1.818-0.741-2.696C1873.872,791.735,1874.119,792.639,1874.365,793.553 M1028.937,791.268
		c-0.008,0.028-0.016,0.057-0.023,0.084c-0.039,0.142-0.078,0.285-0.116,0.426c0.039-0.141,0.077-0.285,0.116-0.426
		C1028.921,791.324,1028.929,791.296,1028.937,791.268 M1875.398,797.504c-0.27-1.064-0.539-2.113-0.812-3.135
		C1874.858,795.391,1875.129,796.44,1875.398,797.504 M1877.173,804.869c0.404,1.768,0.805,3.584,1.202,5.449
		C1877.978,808.453,1877.577,806.637,1877.173,804.869c-0.538-2.355-1.081-4.623-1.63-6.803
		C1876.092,800.247,1876.635,802.515,1877.173,804.869 M1879.277,814.672c-0.228-1.126-0.457-2.226-0.687-3.318
		C1878.82,812.447,1879.05,813.546,1879.277,814.672 M1880.168,819.195c-0.19-0.991-0.383-1.96-0.574-2.928
		C1879.785,817.235,1879.978,818.204,1880.168,819.195 M1881.043,823.885c-0.171-0.938-0.344-1.859-0.516-2.778
		C1880.699,822.025,1880.872,822.946,1881.043,823.885 M1881.902,828.734c-0.157-0.911-0.315-1.806-0.475-2.699
		C1881.587,826.929,1881.745,827.824,1881.902,828.734 M1882.745,833.739c-0.146-0.892-0.294-1.77-0.441-2.646
		C1882.451,831.97,1882.599,832.849,1882.745,833.739 M1883.566,838.883c-0.134-0.863-0.27-1.719-0.405-2.568
		C1883.297,837.164,1883.433,838.02,1883.566,838.883 M1884.371,844.186c-0.125-0.841-0.249-1.676-0.375-2.504
		C1884.122,842.51,1884.246,843.346,1884.371,844.186 M1884.853,847.498c0.101,0.707,0.201,1.42,0.302,2.135
		C1885.055,848.918,1884.954,848.205,1884.853,847.498c-0.015-0.103-0.029-0.205-0.044-0.307
		C1884.823,847.293,1884.838,847.396,1884.853,847.498 M1885.912,855.191c-0.104-0.778-0.206-1.558-0.311-2.327
		C1885.706,853.634,1885.809,854.413,1885.912,855.191 M1886.644,860.844c-0.091-0.716-0.18-1.436-0.271-2.144
		C1886.464,859.409,1886.553,860.128,1886.644,860.844 M1887.341,866.536c-0.073-0.613-0.146-1.233-0.22-1.842
		C1887.195,865.303,1887.268,865.923,1887.341,866.536 M1887.99,872.116c-0.048-0.423-0.095-0.854-0.143-1.274
		C1887.896,871.263,1887.942,871.693,1887.99,872.116 M1171.02,885.321c-0.744-0.856-1.496-1.708-2.265-2.551
		C1169.523,883.613,1170.275,884.465,1171.02,885.321 M1731.743,885.229c0.521-0.6,1.052-1.192,1.584-1.785
		C1732.795,884.036,1732.264,884.629,1731.743,885.229 M1173.219,887.922c-0.497-0.602-1.003-1.2-1.513-1.797
		C1172.216,886.722,1172.722,887.32,1173.219,887.922 M1729.575,887.785c0.391-0.471,0.786-0.938,1.185-1.405
		C1730.361,886.847,1729.965,887.314,1729.575,887.785 M1175.365,890.587c-0.449-0.571-0.902-1.14-1.361-1.706
		C1174.463,889.447,1174.916,890.016,1175.365,890.587 M1727.492,890.364c0.348-0.44,0.697-0.88,1.051-1.317
		C1728.189,889.484,1727.84,889.924,1727.492,890.364 M1177.525,893.407c-0.457-0.612-0.916-1.224-1.385-1.831
		C1176.609,892.184,1177.068,892.795,1177.525,893.407 M1725.535,892.902c0.301-0.399,0.6-0.8,0.906-1.197
		C1726.135,892.103,1725.836,892.503,1725.535,892.902 M1179.991,896.809c-0.594-0.848-1.197-1.691-1.813-2.529
		C1178.794,895.117,1179.396,895.961,1179.991,896.809 M1181.796,899.457c-0.286-0.43-0.579-0.857-0.871-1.285
		C1181.217,898.6,1181.51,899.027,1181.796,899.457 M1720.996,899.29c0.135-0.201,0.272-0.401,0.408-0.603
		C1721.269,898.889,1721.131,899.089,1720.996,899.29 M1183.097,901.451c0.13,0.203,0.26,0.406,0.389,0.609
		C1183.357,901.857,1183.228,901.654,1183.097,901.451c-0.083-0.13-0.167-0.26-0.251-0.39
		C1182.93,901.191,1183.014,901.321,1183.097,901.451 M1719.352,901.813c0.1-0.156,0.2-0.313,0.301-0.469
		C1719.552,901.5,1719.451,901.656,1719.352,901.813 M1184.975,904.464c-0.115-0.192-0.23-0.384-0.348-0.575
		C1184.744,904.08,1184.859,904.271,1184.975,904.464 M1892.107,916.88c-0.002-0.027-0.004-0.055-0.006-0.082
		C1892.104,916.825,1892.105,916.853,1892.107,916.88 M1892.614,924.105c-0.009-0.121-0.017-0.242-0.025-0.364
		C1892.598,923.863,1892.605,923.984,1892.614,924.105 M1893.091,931.467c-0.011-0.17-0.022-0.34-0.032-0.51
		C1893.068,931.128,1893.08,931.297,1893.091,931.467 M1893.535,938.943c-0.01-0.178-0.021-0.354-0.03-0.531
		C1893.515,938.589,1893.525,938.766,1893.535,938.943 M1893.947,946.526c-0.008-0.157-0.017-0.313-0.024-0.471
		C1893.931,946.213,1893.939,946.369,1893.947,946.526 M1894.324,954.17c-0.004-0.089-0.008-0.179-0.012-0.268
		C1894.316,953.991,1894.32,954.081,1894.324,954.17 M1863.494,664.332c-23.059,0-47.193,10.494-78.255,34.024
		c-20.519,15.544-43.995,36.691-71.772,64.65c-35.656,35.89-77.116,81.788-123.484,136.692
		c-45.096-12.172-91.58-18.321-138.643-18.321c-47.07,0-93.567,6.153-138.645,18.32c-46.367-54.903-87.826-100.8-123.484-136.691
		c-27.778-27.959-51.255-49.106-71.773-64.65c-31.061-23.531-55.195-34.024-78.255-34.024c-25.32,0-49.292,10.91-67.5,30.722
		c-17.764,19.312-30.626,48.198-40.466,90.892c-7.637,33.139-13.307,74.704-16.852,123.544
		c-6.083,83.819-5.768,187.285,0.837,293.057c-29.592,44.757-56.589,94.005-80.374,146.642
		c-22.926,50.736-43.071,105.029-59.877,161.372c-36.813,123.431-47.398,221.868-50.295,260.013l-0.037,0.271l-0.1,1.551
		c-0.068,0.933-0.134,1.855-0.197,2.774l-0.004,0.058l-0.004,0.058l-0.006,0.076l-0.017,0.24c-0.063,0.926-0.123,1.809-0.181,2.687
		l-0.045,0.703h-0.001c-0.054,0.822-0.104,1.637-0.153,2.447l-0.063,1.037c-0.044,0.729-0.086,1.452-0.125,2.172l-0.059,1.047
		c-0.039,0.716-0.075,1.4-0.109,2.081l-0.059,1.14l-0.003,0.046l-0.002,0.046l-0.017,0.332l-0.065,1.375l0,0
		c-0.023,0.486-0.045,0.968-0.065,1.448c-0.027,0.586-0.053,1.169-0.076,1.748c-0.016,0.355-0.029,0.708-0.043,1.062l-0.011,0.281
		l-0.019,0.465c-0.016,0.421-0.033,0.84-0.047,1.256l-0.031,0.899l-0.015,0.417c-0.017,0.488-0.034,1.001-0.049,1.51l0,0
		c-0.019,0.552-0.033,1.096-0.048,1.643c-0.014,0.474-0.027,0.949-0.038,1.418c-0.014,0.506-0.024,1.006-0.034,1.506l-0.009,0.369
		l-0.021,0.896l-0.001,0.066l-0.001,0.066l-0.018,1.081l-0.008,0.477l-0.004,0.257c-0.005,0.291-0.01,0.582-0.014,0.87l0,0
		c-0.009,0.615-0.015,1.221-0.02,1.825l0,0l-0.001,0.146l-0.008,0.849c-0.007,0.907-0.01,1.825-0.01,2.729v69.371l65.812-21.937
		l4.38-1.461v94.407v96.033l78.223-54.757l62.16-41.438v34.571l56.717-8.258c1.021-0.125,10.264-1.209,23.927-1.209
		c39.287,0,108.966,8.51,134.217,65.502l17.037,38.455l40.804-10.201l2.778-0.694c5.447,11.299,12.103,21.87,19.945,31.661
		c11.513,14.373,25.581,26.838,41.394,36.771c11.214,25.349,31.888,47.95,60.114,65.253c16.745,10.266,35.519,18.259,55.799,23.76
		c20.851,5.656,42.783,8.523,65.19,8.523h0.325c22.314,0,44.158-2.865,64.924-8.516c20.197-5.495,38.896-13.48,55.581-23.735
		c28.045-17.237,48.626-39.747,59.847-64.988c15.258-9.516,28.92-21.388,40.215-35.036c8.473-10.238,15.623-21.37,21.422-33.328
		l6.858,1.143l38.233,6.373l15.701-35.439c25.25-56.992,94.928-65.502,134.214-65.502c13.646,0,22.875,1.08,23.918,1.208
		l57.114,8.32l-0.232-34.528l62.003,41.334l78.22,54.754l0.003-96.03v-94.405l4.378,1.459l7.697,2.565h8.113h50l0.003-50
		c0-53.563-10.88-151.452-41.415-265.555c-16.71-62.438-37.475-122.702-61.718-179.118c-25.931-60.341-55.913-116.36-89.246-166.775
		c6.603-105.771,6.918-209.238,0.835-293.057c-3.544-48.84-9.214-90.406-16.851-123.545c-9.839-42.694-22.702-71.581-40.479-90.907
		C1912.776,675.239,1888.807,664.332,1863.494,664.332L1863.494,664.332z M1069.719,784.43l-1.816-1.245l4.777,3.048
		L1069.719,784.43L1069.719,784.43z M1828.862,786.935l4.291-2.452l-1.038,0.734l-4.316,2.394L1828.862,786.935L1828.862,786.935z
		 M1075.803,788.599l-1.263-0.865l2.671,1.39l1.189,0.759L1075.803,788.599L1075.803,788.599z M1823.728,789.869l2.668-1.525
		l-0.724,0.447L1823.728,789.869L1823.728,789.869z M1821.221,791.83l4.645-2.194l-1.553,1.097l-2.929,1.351
		C1821.333,792.006,1821.278,791.921,1821.221,791.83L1821.221,791.83z M1079.846,790.596l-1.149-0.7l2.993,1.558
		c-0.008,0.014-0.016,0.027-0.023,0.041L1079.846,790.596L1079.846,790.596z M1079.802,791.34l-1.417-0.972l3.064,1.459l0.008,0.004
		c-0.043,0.067-0.085,0.133-0.127,0.198L1079.802,791.34L1079.802,791.34z M1892.107,916.88l49.882-3.44L1892.107,916.88
		L1892.107,916.88z" fill="#285448"></path>
</g>
<g>
	<path d="M1591.843,2071.362h-281.044c0,0-2.159,0.17,0,29.247c3.345,45.087,62.916,87.738,140.521,87.738h0.325
		c77.251,0,136.545-42.651,139.876-87.738C1593.669,2071.529,1591.843,2071.362,1591.843,2071.362z" fill="#FFDEB7"></path>
	<path d="M1733.925,882.771c-53.413,58.609-47.02,150.032,13.514,201.254l142.968,120.971
		c17.362-257.446-7.497-416.931-28.993-442.772C1840.958,771.24,1790.61,820.567,1733.925,882.771z M1041.264,762.223
		c-21.503,25.842-46.362,185.326-28.993,442.771l142.968-120.969c60.535-51.219,66.927-142.643,13.517-201.254
		C1112.068,820.567,1061.719,771.24,1041.264,762.223L1041.264,762.223z" fill="#C3B9B1"></path>
	<path d="M1708.711,2024.567c51.182-115.522,210.571-93.588,210.571-93.588v-70.189l140.383,93.586v-163.777
		l70.191,23.396c0-102.956-46.4-410.303-221.017-635.452c-230.657-297.414-684.341-297.414-915.001,0
		c-174.616,225.146-221.016,532.493-221.016,635.452l70.191-23.396v163.777l140.383-93.586v70.189
		c0,0,159.393-21.935,210.574,93.588l93.588-23.396h280.766L1708.711,2024.567z" fill="#FFEBD2"></path>
	<path d="M1196.41,1693.949l208.138,283.824V1369.45H880.659c-82.646,182.737-107.833,368.86-107.833,444.545
		l70.191-23.396v163.777c67.338-148.137,157.924-234.263,222.691-280.686C1107.695,1643.594,1165.858,1652.291,1196.41,1693.949z
		 M1706.272,1693.949l-208.139,283.824V1369.45h523.886c82.644,182.737,107.834,368.86,107.834,444.545l-70.191-23.396v163.777
		c-67.336-148.137-157.925-234.263-222.691-280.686C1794.983,1643.594,1736.821,1652.291,1706.272,1693.949L1706.272,1693.949z" fill="#C3B9B1"></path>
	<path d="M1568.328,1603.421h-233.972c-24.859,134.279-93.588,233.493-93.588,384.93
		c0,92.662,70.191,128.36,116.985,128.36s93.589-21.952,93.589-21.952s46.794,21.952,93.588,21.952
		c46.795,0,116.986-35.698,116.986-128.36C1661.917,1836.914,1593.185,1737.7,1568.328,1603.421L1568.328,1603.421z" fill="#FFEBD2"></path>
	<path d="M1936.461,1216.407c14.443-210.027,4.942-436.185-42.277-487.52
		c-11.063-12.031-22.804-14.556-30.689-14.556c-46.636,0-173.376,142.827-256.419,242.838l-1.434-0.486
		c-99.792-33.741-208.812-33.741-308.604,0l-1.434,0.486c-83.043-100.011-209.785-242.838-256.421-242.838
		c-7.883,0-19.629,2.524-30.687,14.556c-47.221,51.338-56.724,277.489-42.277,487.52
		c-151.922,220.493-193.396,500.294-193.396,597.588c125.162-286.086,304.98-380.869,382.82-409.664
		c21.936-8.113,45.079-11.916,68.502-11.446c36.963,0.739,67.203,30.016,71.823,66.693l61.782,490.114h187.177l61.779-490.114
		c4.624-36.678,34.864-65.957,71.827-66.693c23.423-0.47,46.566,3.331,68.501,11.446c77.832,28.792,257.656,123.575,382.818,409.664
		C2129.856,1716.701,2088.376,1436.9,1936.461,1216.407L1936.461,1216.407z M1041.264,762.223
		c20.455,9.018,70.802,58.345,127.491,120.548c21.728,23.84,33.508,53.107,35.797,82.896c1.398,18.178-7.84,35.265-23.492,44.612
		c-67.08,40.049-123.795,91.334-171.484,148.971C997.919,928.721,1021.068,786.498,1041.264,762.223L1041.264,762.223z
		 M1733.928,882.771c56.686-62.209,107.033-111.53,127.487-120.548c20.196,24.275,43.343,166.498,31.686,397.026
		c-47.689-57.64-104.407-108.919-171.48-148.971c-15.653-9.348-24.889-26.435-23.492-44.612
		C1700.419,935.884,1712.197,906.613,1733.928,882.771z" fill="#878791"></path>
	<path d="M1170.577,1486.436c-0.012,25.845,20.927,46.805,46.771,46.817c25.844,0.012,46.803-20.929,46.816-46.771
		c0-0.016,0-0.031,0-0.046c0.012-25.845-20.927-46.805-46.771-46.817c-25.845-0.012-46.806,20.929-46.817,46.771
		C1170.577,1486.405,1170.577,1486.421,1170.577,1486.436z" fill="#464655"></path>
	<path d="M1638.52,1486.436c-0.015,25.845,20.927,46.805,46.771,46.817c25.844,0.012,46.803-20.929,46.817-46.771
		c0-0.016,0-0.031,0-0.046c0.011-25.845-20.931-46.805-46.774-46.817c-25.842-0.012-46.803,20.929-46.814,46.771
		C1638.52,1486.405,1638.52,1486.421,1638.52,1486.436z" fill="#464655"></path>
	<path d="M1544.931,1949.698c0,45.229-41.899,98.267-93.588,98.267s-93.589-53.042-93.589-98.267
		c0-45.229,41.9-65.514,93.589-65.514C1503.028,1884.185,1544.931,1904.47,1544.931,1949.698z" fill="#464655"></path>
</g>
</svg>
